<svg width="274" height="100" viewBox="0 0 274 100" fill="none" xmlns="http://www.w3.org/2000/svg">
<path opacity="0.3" d="M37.732 3.74793C24.156 1.67495 11.5119 10.9689 9.43896 24.5448L3.74794 61.8152C1.67495 75.3912 10.9692 88.0353 24.5452 90.1083L61.8152 95.7992C75.3912 97.8722 88.0353 88.578 90.1083 75.002L95.7993 37.7317C97.8723 24.1557 88.578 11.5119 75.002 9.4389L37.732 3.74793Z" fill="#25858A"/>
<path d="M32.5498 9.86351C20.002 9.86351 9.86353 20.0017 9.86353 32.5495L9.86353 66.9974C9.86353 79.5452 20.002 89.6837 32.5498 89.6837L66.9974 89.6837C79.5452 89.6837 89.6837 79.5452 89.6837 66.9974L89.6837 32.5495C89.6837 20.0017 79.5452 9.86351 66.9974 9.86351L32.5498 9.86351Z" fill="#10393B"/>
<path d="M66.4559 32.3535C66.2165 31.4483 66.2165 30.4964 66.4559 29.5911C66.7146 28.591 67.2485 27.6836 67.9971 26.9717C68.7457 26.2599 69.6789 25.7723 70.6907 25.5642C71.7025 25.3562 72.7524 25.436 73.7211 25.7948C74.6898 26.1535 75.5384 26.7767 76.1707 27.5936C76.803 28.4104 77.1935 29.3883 77.2979 30.416C77.4023 31.4436 77.2163 32.48 76.7613 33.4073C76.3062 34.3347 75.6001 35.1158 74.7234 35.662C73.8466 36.2082 72.8342 36.4975 71.8013 36.4972C71.4111 36.4983 71.0221 36.4566 70.641 36.3729L70.3234 37.0082L70.0057 37.6436L56.7184 64.2182C55.9925 63.632 55.1494 63.2081 54.246 62.9751L67.5333 36.4005L67.851 35.7651L68.1687 35.1298C67.3249 34.4033 66.7267 33.4335 66.4559 32.3535ZM69.4118 29.5911C69.1675 30.0104 69.0388 30.487 69.0388 30.9723C69.0388 31.4576 69.1675 31.9342 69.4118 32.3535C69.4424 32.3977 69.4701 32.4439 69.4946 32.4917C69.7464 32.8733 70.0889 33.1867 70.4914 33.4036C70.894 33.6205 71.344 33.7343 71.8013 33.7348C71.8569 33.737 71.9125 33.7324 71.967 33.7209C72.4434 33.6923 72.9041 33.5406 73.3043 33.2805C73.7045 33.0205 74.0303 32.6611 74.25 32.2374C74.4696 31.8138 74.5756 31.3404 74.5575 30.8635C74.5395 30.3866 74.398 29.9226 74.1469 29.5168C73.8958 29.1109 73.5437 28.7772 73.125 28.5482C72.7063 28.3192 72.2354 28.2028 71.7582 28.2103C71.2811 28.2177 70.814 28.3489 70.4027 28.591C69.9914 28.833 69.65 29.1776 69.4118 29.5911Z" fill="white"/>
<path d="M27.6023 30.9723C27.6017 29.6278 28.0917 28.3293 28.9802 27.3203C29.8688 26.3112 31.0949 25.661 32.4287 25.4915C33.7625 25.322 35.1123 25.645 36.225 26.3997C37.3376 27.1545 38.1368 28.2892 38.4725 29.5911H65.0333C64.8492 30.5027 64.8492 31.4419 65.0333 32.3535H38.4725C38.2017 33.4335 37.6035 34.4033 36.7598 35.1298C36.0545 35.7472 35.2036 36.175 34.2874 36.3729C33.9064 36.4566 33.5173 36.4983 33.1272 36.4972C32.4016 36.4974 31.683 36.3546 31.0126 36.0771C30.3422 35.7995 29.7331 35.3925 29.22 34.8795C28.707 34.3664 28.3 33.7572 28.0224 33.0868C27.7448 32.4164 27.6021 31.6979 27.6023 30.9723ZM30.3647 30.9723C30.3652 31.6753 30.6344 32.3514 31.1171 32.8624C31.5999 33.3734 32.2596 33.6805 32.9614 33.7209C33.0159 33.7324 33.0716 33.737 33.1272 33.7348C33.5844 33.7343 34.0344 33.6205 34.437 33.4036C34.8395 33.1867 35.182 32.8733 35.4338 32.4917C35.4584 32.4439 35.486 32.3977 35.5167 32.3535C35.7287 31.9868 35.8536 31.5761 35.8815 31.1533C35.9094 30.7306 35.8397 30.3071 35.6777 29.9156C35.5157 29.5241 35.2658 29.1751 34.9474 28.8957C34.6289 28.6163 34.2504 28.4139 33.8412 28.3041C33.4319 28.1944 33.003 28.1804 32.5874 28.263C32.1719 28.3457 31.7809 28.5228 31.4448 28.7808C31.1087 29.0387 30.8365 29.3706 30.6492 29.7506C30.4619 30.1306 30.3646 30.5486 30.3647 30.9723Z" fill="white"/>
<path d="M56.083 65.4751C56.934 66.2128 57.5393 67.193 57.8177 68.2843C58.096 69.3756 58.0342 70.5259 57.6406 71.5811C57.2469 72.6363 56.5401 73.546 55.615 74.1883C54.6898 74.8306 53.5905 75.1748 52.4642 75.1748C51.338 75.1748 50.2386 74.8306 49.3135 74.1883C48.3883 73.546 47.6815 72.6363 47.2879 71.5811C46.8942 70.5259 46.8324 69.3756 47.1108 68.2843C47.3891 67.193 47.9944 66.2128 48.8454 65.4751L48.5277 64.8398L48.2101 64.2182L34.9227 37.6436C35.8218 37.399 36.6626 36.9763 37.3951 36.4005L50.6824 62.9751L51.0001 63.6105L51.304 64.2459C52.0686 64.0801 52.8599 64.0801 53.6245 64.2459C54.5345 64.4419 55.3802 64.8647 56.083 65.4751ZM55.2266 69.6464C55.2283 69.1017 55.0698 68.5686 54.7708 68.1133C54.5167 67.7349 54.1734 67.4248 53.7711 67.2105C53.3688 66.9961 52.92 66.8839 52.4642 66.8839C52.0084 66.8839 51.5596 66.9961 51.1573 67.2105C50.7551 67.4248 50.4117 67.7349 50.1576 68.1133C49.9189 68.4726 49.7676 68.8828 49.7158 69.3111C49.6639 69.7393 49.713 70.1738 49.8591 70.5797C50.0051 70.9856 50.2441 71.3517 50.5569 71.6487C50.8697 71.9458 51.2477 72.1655 51.6606 72.2904C52.0735 72.4153 52.5099 72.4418 52.9349 72.3679C53.3599 72.2941 53.7617 72.1218 54.1082 71.8648C54.4548 71.6079 54.7364 71.2735 54.9306 70.8883C55.1248 70.5031 55.2262 70.0778 55.2266 69.6464Z" fill="white"/>
<path d="M104.162 70.1857V34.7857L99.1325 34.0157V30.3457H118.082V34.0157L112.872 34.7857V70.1857L118.082 70.8357V74.3357H99.1325V70.7857L104.162 70.1857Z" fill="#EF8450"/>
<path d="M155.672 62.3157C155.672 65.549 154.586 68.3324 152.412 70.6657C150.246 72.9924 146.969 74.3724 142.582 74.8057L142.532 81.7957H137.792L137.852 74.9257C135.446 74.7657 133.296 74.449 131.402 73.9757C129.502 73.5024 127.606 72.969 125.712 72.3757L126.192 61.8457H131.042L132.462 69.1257C133.922 70.5057 136.252 71.1957 139.452 71.1957C144.579 71.1957 147.142 68.9857 147.142 64.5657C147.142 63.2257 146.709 62.0124 145.842 60.9257C144.976 59.839 143.852 58.8724 142.472 58.0257C141.086 57.1724 139.149 56.1157 136.662 54.8557C134.376 53.669 132.492 52.5057 131.012 51.3657C129.532 50.219 128.339 48.8057 127.432 47.1257C126.526 45.4524 126.072 43.4524 126.072 41.1257C126.072 38.239 127.166 35.7624 129.352 33.6957C131.546 31.6224 134.496 30.369 138.202 29.9357V23.4257H143.062V29.8757C145.036 29.9957 146.782 30.2524 148.302 30.6457C149.822 31.039 151.409 31.4924 153.062 32.0057L152.772 41.7157H148.032L146.672 35.0257C146.199 34.5924 145.509 34.2157 144.602 33.8957C143.696 33.5824 142.689 33.4257 141.582 33.4257C139.369 33.4257 137.592 33.949 136.252 34.9957C134.912 36.0424 134.242 37.4924 134.242 39.3457C134.242 40.8457 134.686 42.149 135.572 43.2557C136.459 44.3557 137.486 45.2624 138.652 45.9757C139.812 46.689 141.599 47.6957 144.012 48.9957C146.732 50.4957 148.852 51.789 150.372 52.8757C151.892 53.9624 153.156 55.2724 154.162 56.8057C155.169 58.3457 155.672 60.1824 155.672 62.3157Z" fill="#EF8450"/>
<path d="M167.802 70.1857V34.7857L162.772 34.0157V30.3457H181.722V34.0157L176.512 34.7857V70.1857L181.722 70.8357V74.3357H162.772V70.7857L167.802 70.1857Z" fill="#EF8450"/>
<path d="M205.402 74.9857C198.969 74.9857 194.152 72.9724 190.952 68.9457C187.759 64.919 186.162 59.4324 186.162 52.4857C186.162 47.9457 186.999 43.959 188.672 40.5257C190.352 37.0924 192.712 34.449 195.752 32.5957C198.786 30.7424 202.276 29.8157 206.222 29.8157C212.736 29.8157 217.622 31.739 220.882 35.5857C224.136 39.4324 225.762 44.809 225.762 51.7157C225.762 56.2957 224.906 60.3524 223.192 63.8857C221.472 67.419 219.072 70.1524 215.992 72.0857C212.919 74.019 209.389 74.9857 205.402 74.9857ZM205.992 33.4257C202.752 33.4257 200.226 35.0257 198.412 38.2257C196.599 41.419 195.692 46.1524 195.692 52.4257C195.692 58.6257 196.569 63.3324 198.322 66.5457C200.082 69.7657 202.599 71.3757 205.872 71.3757C209.066 71.3757 211.572 69.689 213.392 66.3157C215.206 62.9357 216.112 58.069 216.112 51.7157C216.112 45.5624 215.246 40.9757 213.512 37.9557C211.772 34.9357 209.266 33.4257 205.992 33.4257Z" fill="#EF8450"/>
<path d="M234.522 70.1857V34.7857L229.852 34.0157V30.3457H243.282L260.932 56.9857L264.242 63.7357V34.7857L259.152 34.0157V30.3457H273.832V34.0157L269.272 34.7857V74.3357H262.112L243.702 46.3357L239.552 38.5157V70.1857L245.532 70.7857V74.3357H229.852V70.7857L234.522 70.1857Z" fill="#EF8450"/>
</svg>
