<svg xmlns="http://www.w3.org/2000/svg" viewBox="150 120 300 300"><g  id="freepik--Character--inject-4"><path d="M393.64,253.56s-17.41-2.2-43.79,5c0,0-4.24-47.14-3.74-53.62s40.73-4.58,40.73-4.58,1,18.87,3.62,30.25S395,251.37,393.64,253.56Z" style="fill:#EF8450"></path><path d="M393.64,253.56s-17.41-2.2-43.79,5c0,0-4.24-47.14-3.74-53.62s40.73-4.58,40.73-4.58,1,18.87,3.62,30.25S395,251.37,393.64,253.56Z" style="opacity:1"></path><polygon points="337.13 409.62 344.23 411.63 345.92 400.58 346.83 394.67 339.73 392.66 338.52 400.58 337.13 409.62" style="fill:#e4897b"></polygon><polygon points="377.95 410.2 385.27 411.17 385.34 400.58 385.39 394 378.06 393.04 378.01 400.58 377.95 410.2" style="fill:#e4897b"></polygon><polygon points="378.06 393.04 378.01 400.58 385.34 400.58 385.39 394 378.06 393.04" style="opacity:0.2"></polygon><polygon points="338.52 400.58 345.92 400.58 346.83 394.67 339.73 392.66 338.52 400.58" style="opacity:0.2"></polygon><path d="M305.61,208.81l-7.05-2.08,1.29,8.05s6.4,1.47,7-1.86Z" style="fill:#e4897b"></path><polygon points="291.52 208.6 294.98 215.14 299.85 214.78 298.56 206.73 291.52 208.6" style="fill:#e4897b"></polygon><polygon points="315.34 210.87 303.76 208.28 302.71 213.9 313.22 216.46 315.34 210.87" style="fill:#e4897b"></polygon><path d="M350.37,205.79l-.68.81c-1.46,1.71-5,5.84-8.69,9.4-3,2.9-6,5.43-8,5.94-5.67,1.46-26.28-4.61-26.28-4.61l2.13-8.36s19.2,2.55,20.69,2.55c1.13,0,12.81-16.92,15.64-18.31Z" style="fill:#EF8450"></path><path d="M349.69,206.6c-1.46,1.71-5,5.84-8.69,9.4.74-5.86,2.89-11.24,5.72-14.64a5.28,5.28,0,0,1,.9-.88Z" style="opacity:0.2"></path><path d="M337.22,408.51l8.06-.21a.64.64,0,0,1,.64.48l1.7,6.49a1.07,1.07,0,0,1-1,1.34c-2.91,0-7.12,0-10.77.07-4.28.12-7-.09-12,0-3,.08-4-2.94-2.72-3.25,5.73-1.42,9.48-1.14,14.36-4.34A3.49,3.49,0,0,1,337.22,408.51Z" style="fill:#263238"></path><path d="M336.52,409.55h0c-1.18.26-3.28.61-4.12-.08a1,1,0,0,1-.36-.84.54.54,0,0,1,.27-.47c.89-.53,3.9.9,4.25,1.06a.19.19,0,0,1,.1.17A.17.17,0,0,1,336.52,409.55Zm-4-1.11-.06,0a.22.22,0,0,0-.11.19.65.65,0,0,0,.23.55c.47.39,1.69.43,3.31.11C334.72,408.8,333.09,408.23,332.54,408.44Z" style="fill:#EF8450"></path><path d="M336.52,409.55h-.12c-.91-.38-2.73-1.92-2.63-2.75,0-.2.16-.45.64-.51a1.35,1.35,0,0,1,1,.27c1,.75,1.23,2.72,1.25,2.8a.18.18,0,0,1-.07.16Zm-2.24-2.87c-.15.05-.16.13-.16.16-.06.5,1.18,1.72,2.11,2.24a4,4,0,0,0-1.06-2.24.9.9,0,0,0-.72-.2A.61.61,0,0,0,334.28,406.68Z" style="fill:#EF8450"></path><path d="M378.24,408.51l8.06-.21a.65.65,0,0,1,.65.48l1.69,6.49a1.06,1.06,0,0,1-1,1.34c-2.91,0-7.12,0-10.78.07-4.27.12-7-.09-12,0-3,.08-4-2.94-2.72-3.25,5.73-1.42,9.47-1.14,14.35-4.34A3.49,3.49,0,0,1,378.24,408.51Z" style="fill:#263238"></path><path d="M377.55,409.55h0c-1.18.26-3.29.61-4.12-.08a1,1,0,0,1-.36-.84.54.54,0,0,1,.27-.47c.88-.53,3.9.9,4.24,1.06a.16.16,0,0,1,.1.17A.18.18,0,0,1,377.55,409.55Zm-4-1.11-.06,0a.2.2,0,0,0-.1.19.63.63,0,0,0,.23.55c.47.39,1.68.43,3.31.11C375.74,408.8,374.11,408.23,373.56,408.44Z" style="fill:#EF8450"></path><path d="M377.55,409.55h-.13c-.9-.38-2.73-1.92-2.62-2.75,0-.2.15-.45.63-.51a1.33,1.33,0,0,1,1,.27,5,5,0,0,1,1.25,2.8.16.16,0,0,1-.07.16Zm-2.25-2.87c-.14.05-.15.13-.15.16-.07.5,1.18,1.72,2.11,2.24a4.11,4.11,0,0,0-1.06-2.24.91.91,0,0,0-.72-.2Z" style="fill:#EF8450"></path><path d="M393.05,249.26c3.88,16.81-2.78,149.06-2.78,149.06H377.41l-5.5-110.21L351.66,398.32l-13.75-1c9-85.38,16.93-136.35,16.93-136.35l0-6.44Z" style="fill:#263238"></path><path d="M337.91,397.32l13.75,1,15.94-86.76,4.31-23.45,5.5,110.21h12.86s6.66-132.25,2.78-149.06l-38.23,5.27,0,6.44S346.9,311.94,337.91,397.32Z" style="fill:#fff;opacity:0.4"></path><path d="M386.12,187a162.35,162.35,0,0,0,.61,24.1c.54,5.6,1.28,10.89,2.07,15.66,1.85,11.19,3.95,19.58,4.25,22.51l-38.23,5.27c-13.94-39-8.69-61.66-8.69-61.66a74.82,74.82,0,0,1,8.77-3c.63-.17,1.27-.33,1.93-.48a143.19,143.19,0,0,1,16.25-2.24c1-.09,2.09-.16,3.11-.21C381.41,186.69,386.12,187,386.12,187Z" style="fill:#263238"></path><path d="M365.66,169.45c.28,5.35.85,15.39,5.3,17.94,0,0-2.77,5.27-8.76,5.81-4.53.4-4.23-4.07-4.23-4.07,2.62-1.95,2-5.26,0-9Z" style="fill:#e4897b"></path><path d="M362.52,173.81,358,180.13a17.4,17.4,0,0,1,1.2,2.7c2.1-.84,4.51-4,4.16-6.29A7.8,7.8,0,0,0,362.52,173.81Z" style="opacity:0.2"></path><path d="M346.16,158.68c-.87,2.78-.39,8.48,3.48,6.63S347.66,153.91,346.16,158.68Z" style="fill:#263238"></path><path d="M366.16,162.44c.43,7.13,1,11.28-2.11,15.32-4.73,6.07-13.89,3.81-16.45-3.07-2.3-6.2-2.61-16.82,4-20.42A9.86,9.86,0,0,1,366.16,162.44Z" style="fill:#e4897b"></path><path d="M361.16,158.56v-8s8.48-.63,8.1,3.71c4.7,2.33,2.48,9.64-3.83,13.22-3.46-2.77-3.06-9.43-3.06-9.43C362,158.25,361.58,158.41,361.16,158.56Z" style="fill:#263238"></path><path d="M369.61,168a6.65,6.65,0,0,1-2.85,4.31c-2,1.31-3.73-.3-3.8-2.55-.06-2,.89-5.16,3.19-5.56A3.08,3.08,0,0,1,369.61,168Z" style="fill:#e4897b"></path><path d="M355.63,165.62c.07.58-.18,1.08-.56,1.12s-.74-.39-.81-1,.18-1.08.55-1.12S355.56,165,355.63,165.62Z" style="fill:#263238"></path><path d="M349.09,166.35c.07.58-.18,1.08-.56,1.12s-.74-.39-.81-1,.18-1.08.56-1.12S349,165.77,349.09,166.35Z" style="fill:#263238"></path><path d="M351.2,166.4a20.13,20.13,0,0,1-2.23,5.08,3.44,3.44,0,0,0,2.81.15Z" style="fill:#de5753"></path><path d="M355.15,173.49a5.86,5.86,0,0,1-.75.14.17.17,0,1,1,0-.34,4.6,4.6,0,0,0,3.52-2.2.16.16,0,0,1,.22-.08.17.17,0,0,1,.08.23A4.71,4.71,0,0,1,355.15,173.49Z" style="fill:#263238"></path><path d="M357.39,163.29a.36.36,0,0,1-.34-.1,2.77,2.77,0,0,0-2.31-.89.33.33,0,0,1-.4-.27.34.34,0,0,1,.27-.4,3.42,3.42,0,0,1,2.93,1.09.33.33,0,0,1,0,.48A.4.4,0,0,1,357.39,163.29Z" style="fill:#263238"></path><path d="M346,164.42a.28.28,0,0,1-.2,0,.34.34,0,0,1-.21-.43,3.35,3.35,0,0,1,2.21-2.18.34.34,0,0,1,.17.66,2.61,2.61,0,0,0-1.73,1.74A.33.33,0,0,1,346,164.42Z" style="fill:#263238"></path><path d="M364.92,161.52s-5-1.83-7.28-4.73c0,0-4.54,1.19-5.47,3a2.26,2.26,0,0,1-.39-3s-3.4.72-4.07,3a2.86,2.86,0,0,1-1.6-3s-1.51.57-2,3c0,0-3.75-7.82,8.64-10.06a9.24,9.24,0,0,0-2.91-.49s8.65-3.49,15.5-.3S371,158.31,364.92,161.52Z" style="fill:#263238"></path><path d="M396,256l-12,1.6s-4.95-34.59-7.13-45.76V188l6.27-1.65L388,188a117,117,0,0,1,3.07,14.6c.59,3.74,1.12,7.74,1.59,11.79.65,5.52,1.19,11.14,1.65,16.4.72,8.49,1.2,16,1.46,20.59C395.92,254.26,396,256,396,256Z" style="fill:#EF8450"></path><path d="M376.88,211.82s1-16.83,6.27-25.51c0,0-.13-2.48-1.18-2.88s-5.09,2-5.09,2-2.51-1.72-3.06-.92S371.93,190.63,376.88,211.82Z" style="fill:#EF8450"></path><path d="M376.88,211.82s1-16.83,6.27-25.51c0,0-.13-2.48-1.18-2.88s-5.09,2-5.09,2-2.51-1.72-3.06-.92S371.93,190.63,376.88,211.82Z" style="fill:#fff;opacity:0.7000000000000001"></path><path d="M349.6,260.61l1.37,1s-2-11.15-1.18-39.35c0-1.36.09-2.67.14-3.92,1-23.86,4.72-28.2,5-28.46l-3.46,1.18-6.27,2.16C343.31,213.57,349.6,260.61,349.6,260.61Z" style="fill:#EF8450"></path><path d="M350.14,214.23s-3.46-16.36-2.43-22,4.72-3.13,4.72-3.13,3.39-2.74,4.4.28C356.83,189.38,352.17,192.66,350.14,214.23Z" style="fill:#EF8450"></path><path d="M350.14,214.23s-3.46-16.36-2.43-22,4.72-3.13,4.72-3.13,3.39-2.74,4.4.28C356.83,189.38,352.17,192.66,350.14,214.23Z" style="fill:#fff;opacity:0.7000000000000001"></path><path d="M392.64,214.35c-5.12-2.87-5.8-10.36-5.8-10.36.31-.12,2.21-.77,4.21-1.43C391.64,206.3,392.17,210.3,392.64,214.35Z" style="opacity:0.2"></path><path d="M367.6,311.56l4.31-23.45-.83-12.41S365.17,297.22,367.6,311.56Z" style="opacity:0.2"></path><path d="M395.75,251.34c-3.22-.22-6-.43-6-.43l-.61-13.09a4.65,4.65,0,0,1,3.37-.62,36.82,36.82,0,0,0,1.79-6.45C395,239.24,395.49,246.76,395.75,251.34Z" style="opacity:0.2"></path><polygon points="396.85 230.74 390.58 240.81 395.54 243.66 401.43 234.59 396.85 230.74" style="fill:#e4897b"></polygon><path d="M387.73,187.84c4.22.46,22.16,25.08,22.95,32.5s-10.54,20.23-10.54,20.23l-7.56-4.45s7.68-11.81,8.08-15-14.05-16.08-14.05-16.08a29.11,29.11,0,0,1-1.78-9.26C384.63,190.36,387.73,187.84,387.73,187.84Z" style="fill:#EF8450"></path><path d="M389.13,237.83s6.45,1.38,9.05,5.44c0,0-2.7,8.45-4.63,9.37s-6.71.92-6.71.92S386.53,244.16,389.13,237.83Z" style="fill:#EF8450"></path></g></svg>