<svg xmlns="http://www.w3.org/2000/svg" viewBox="100 -10 300 300"><g id="freepik--background-complete--inject-6"><rect x="392.02" y="56.61" width="69.07" height="72" style="fill:#e0e0e0"></rect><rect x="387.34" y="56.61" width="69.07" height="72" style="fill:#fafafa"></rect><path d="M456.43,128.63H387.32v-72h69.11Zm-69.07,0h69v-72h-69Z" style="fill:#e0e0e0"></path><rect x="396.63" y="66.28" width="50.5" height="52.64" style="fill:#fff"></rect><path d="M396.63,119.28a8,8,0,0,1-1.25,1.45c-.81.85-1.94,2-3.21,3.25s-2.44,2.37-3.3,3.16a7.32,7.32,0,0,1-1.46,1.21,8.83,8.83,0,0,1,1.24-1.44c.81-.85,1.94-2,3.22-3.26s2.44-2.37,3.3-3.16A8.06,8.06,0,0,1,396.63,119.28Z" style="fill:#e0e0e0"></path><path d="M447.13,119.15a8.17,8.17,0,0,1,1.45,1.24c.85.81,2,1.94,3.25,3.21s2.37,2.44,3.16,3.3a9.11,9.11,0,0,1,1.22,1.46,7.21,7.21,0,0,1-1.45-1.24c-.85-.8-2-1.94-3.26-3.21s-2.37-2.45-3.16-3.31A7.84,7.84,0,0,1,447.13,119.15Z" style="fill:#e0e0e0"></path><path d="M447,66.43A8,8,0,0,1,448.24,65c.8-.85,1.94-2,3.21-3.26s2.43-2.36,3.3-3.16a7.32,7.32,0,0,1,1.46-1.21A8.83,8.83,0,0,1,455,58.79c-.81.85-2,2-3.22,3.26s-2.45,2.37-3.31,3.17A8.4,8.4,0,0,1,447,66.43Z" style="fill:#e0e0e0"></path><path d="M396.49,66.55A7.66,7.66,0,0,1,395,65.31c-.85-.81-2-1.94-3.25-3.21s-2.37-2.44-3.16-3.3a8.62,8.62,0,0,1-1.22-1.46,7.83,7.83,0,0,1,1.44,1.24c.86.81,2,1.94,3.27,3.22s2.37,2.44,3.16,3.3A7.84,7.84,0,0,1,396.49,66.55Z" style="fill:#e0e0e0"></path><path d="M447,118.93s0-.09,0-.26,0-.42,0-.73c0-.66,0-1.61,0-2.84,0-2.5,0-6.13-.06-10.73,0-9.22-.05-22.36-.09-38.09l.19.2-50.36,0h0l.22-.23c0,19.33,0,37.4,0,52.65l-.19-.19,36.46.09,10.25,0,2.71,0h.7a.93.93,0,0,1,.24,0h-.9l-2.68,0-10.19,0-36.59.1h-.19v-.19c0-15.25,0-33.32,0-52.65v-.22h.23l50.36,0h.2v.19c0,15.78-.07,29-.09,38.21,0,4.59,0,8.2-.06,10.69,0,1.21,0,2.15,0,2.8,0,.3,0,.54,0,.71A2.17,2.17,0,0,1,447,118.93Z" style="fill:#e0e0e0"></path><rect x="413.45" y="84.18" width="16.85" height="16.85" style="fill:#ebebeb"></rect><rect x="392.02" y="156.29" width="69.07" height="72" style="fill:#e0e0e0"></rect><rect x="387.34" y="156.29" width="69.07" height="72" style="fill:#fafafa"></rect><path d="M456.43,228.31H387.32v-72h69.11Zm-69.07,0h69v-72h-69Z" style="fill:#e0e0e0"></path><rect x="396.63" y="165.97" width="50.5" height="52.64" style="fill:#fff"></rect><path d="M396.63,219a8,8,0,0,1-1.25,1.45c-.81.85-1.94,2-3.21,3.25s-2.44,2.37-3.3,3.16a8.18,8.18,0,0,1-1.46,1.22,8.61,8.61,0,0,1,1.24-1.45c.81-.85,1.94-2,3.22-3.26s2.44-2.37,3.3-3.16A8.06,8.06,0,0,1,396.63,219Z" style="fill:#e0e0e0"></path><path d="M447.13,218.83a8,8,0,0,1,1.45,1.25c.85.8,2,1.94,3.25,3.21s2.37,2.44,3.16,3.3a8.18,8.18,0,0,1,1.22,1.46,8.17,8.17,0,0,1-1.45-1.24c-.85-.81-2-1.95-3.26-3.22s-2.37-2.44-3.16-3.31A7.84,7.84,0,0,1,447.13,218.83Z" style="fill:#e0e0e0"></path><path d="M447,166.11a8,8,0,0,1,1.25-1.45c.8-.85,1.94-2,3.21-3.26s2.43-2.36,3.3-3.15a8.18,8.18,0,0,1,1.46-1.22,8.36,8.36,0,0,1-1.24,1.44c-.81.86-2,2-3.22,3.26s-2.45,2.38-3.31,3.17A7.84,7.84,0,0,1,447,166.11Z" style="fill:#e0e0e0"></path><path d="M396.49,166.24A8,8,0,0,1,395,165c-.85-.81-2-1.94-3.25-3.21s-2.37-2.44-3.16-3.3a8.18,8.18,0,0,1-1.22-1.46,7.83,7.83,0,0,1,1.44,1.24c.86.81,2,1.94,3.27,3.22s2.37,2.44,3.16,3.3A8.06,8.06,0,0,1,396.49,166.24Z" style="fill:#e0e0e0"></path><path d="M447,218.61s0-.09,0-.26,0-.42,0-.73c0-.66,0-1.61,0-2.84,0-2.5,0-6.12-.06-10.73,0-9.22-.05-22.36-.09-38.08l.19.19-50.36,0h0l.22-.22c0,19.32,0,37.4,0,52.64l-.19-.19,36.46.1,10.25,0,2.71,0h0l-2.68,0-10.19,0-36.59.1h-.19v-.19c0-15.24,0-33.32,0-52.64v-.23h.23l50.36,0h.2v.2c0,15.78-.07,28.95-.09,38.2,0,4.59,0,8.21-.06,10.69,0,1.22,0,2.15,0,2.8,0,.31,0,.54,0,.72A1.85,1.85,0,0,1,447,218.61Z" style="fill:#e0e0e0"></path><rect x="413.45" y="183.86" width="16.85" height="16.85" style="fill:#ebebeb"></rect><rect x="46.16" y="231.16" width="54.48" height="56.8" style="fill:#e0e0e0"></rect><rect x="42.47" y="231.16" width="54.48" height="56.8" style="fill:#fafafa"></rect><path d="M97,288H42.45V231.14H97Zm-54.49,0H96.93V231.17H42.48Z" style="fill:#e0e0e0"></path><rect x="49.79" y="238.79" width="39.84" height="41.53" style="fill:#fff"></rect><path d="M49.79,280.59a6.5,6.5,0,0,1-1,1.15c-.64.67-1.53,1.58-2.53,2.56s-1.93,1.87-2.61,2.5a5.81,5.81,0,0,1-1.15.95,6.78,6.78,0,0,1,1-1.13C44.14,285.94,45,285,46,284s1.93-1.87,2.6-2.49A6.56,6.56,0,0,1,49.79,280.59Z" style="fill:#e0e0e0"></path><path d="M89.63,280.49a7,7,0,0,1,1.14,1c.67.63,1.58,1.53,2.57,2.53s1.86,1.92,2.49,2.6a7.19,7.19,0,0,1,1,1.15,5.69,5.69,0,0,1-1.14-1c-.67-.63-1.58-1.53-2.57-2.53s-1.87-1.93-2.5-2.61A6.17,6.17,0,0,1,89.63,280.49Z" style="fill:#e0e0e0"></path><path d="M89.52,238.9a7.18,7.18,0,0,1,1-1.14c.64-.67,1.53-1.58,2.53-2.57s1.93-1.86,2.61-2.49a6.71,6.71,0,0,1,1.15-1,6.15,6.15,0,0,1-1,1.14c-.64.67-1.53,1.58-2.54,2.57s-1.93,1.87-2.61,2.5A6,6,0,0,1,89.52,238.9Z" style="fill:#e0e0e0"></path><path d="M49.68,239a6.52,6.52,0,0,1-1.14-1c-.67-.63-1.58-1.53-2.57-2.53s-1.86-1.92-2.49-2.6a7.19,7.19,0,0,1-1-1.15,5.81,5.81,0,0,1,1.14,1c.67.64,1.58,1.54,2.57,2.54s1.87,1.93,2.5,2.61A5.81,5.81,0,0,1,49.68,239Z" style="fill:#e0e0e0"></path><path d="M89.52,280.32a1.57,1.57,0,0,1,0-.2c0-.15,0-.34,0-.58,0-.52,0-1.27,0-2.24,0-2,0-4.83,0-8.47,0-7.27,0-17.63-.08-30l.16.16L49.8,239h0l.18-.18c0,15.24,0,29.5,0,41.53l-.15-.15,28.77.07,8.08,0,2.13,0H86.7l-8,0-28.86.08h-.15v-.15c0-12,0-26.29,0-41.53v-.17h.19l39.72,0h.15v.15c0,12.45-.06,22.84-.08,30.14,0,3.62,0,6.47,0,8.43,0,1,0,1.7,0,2.21,0,.24,0,.43,0,.56S89.52,280.32,89.52,280.32Z" style="fill:#e0e0e0"></path><rect x="63.06" y="252.91" width="13.29" height="13.29" style="fill:#ebebeb"></rect><path d="M454,257.62c-10.71,5.55-18.92,15.1-24.82,25.61s-9.71,22-13.48,33.51l-3.3,59.08c12.46-21.2,22.46-46.12,25.16-70.56l-8.29-.73c5.56-.85,10.23-4.88,13.2-9.66s4.49-10.28,6-15.7l-10.11,1.5A37.51,37.51,0,0,0,454,257.62Z" style="fill:#e0e0e0"></path><path d="M410.51,389.66s-27.05-32.37-26.73-63.27H394.7s-11.87-7.8-10.93-12.17S385,293.3,385,293.3l10,2.5s-7.49-3.74-8.43-9.67,2.19-33.4,2.19-33.4,12.17,12.8,15.92,25.9S418.26,307,415.38,347,410.51,389.66,410.51,389.66Z" style="fill:#ebebeb"></path><path d="M424.22,392.71s29.29-19.52,35.8-44.43l-8.78-2.39s11.25-3.67,11.45-7.39,3.57-17.09,3.57-17.09l-8.58-.18s6.84-1.37,8.9-5.93S472.13,288,472.13,288s-12.59,7.63-18.47,17.35-17.13,19.86-23.55,52.61S424.22,392.71,424.22,392.71Z" style="fill:#ebebeb"></path><path d="M396.16,281a1.55,1.55,0,0,1,.09.34l.24,1c.2.91.49,2.2.86,3.84s.81,3.71,1.29,6.1,1,5.08,1.59,8.09c1.16,6,2.38,13.18,3.64,21.16s2.43,16.79,3.52,26,1.88,18.12,2.51,26.18S411,389,411.19,395.13c.15,3.05.22,5.82.29,8.24s.13,4.52.14,6.23,0,3,0,3.93v1a1.35,1.35,0,0,1,0,.35,1.6,1.6,0,0,1,0-.35c0-.26,0-.6-.05-1,0-.94-.08-2.25-.14-3.94s-.12-3.79-.23-6.22-.19-5.18-.37-8.23c-.29-6.1-.77-13.36-1.39-21.41s-1.5-16.9-2.56-26.16-2.29-18.05-3.48-26-2.41-15.16-3.53-21.16c-.52-3-1.06-5.72-1.51-8.11s-.85-4.43-1.2-6.11-.58-2.94-.76-3.86c-.08-.42-.14-.75-.19-1A1.33,1.33,0,0,1,396.16,281Z" style="fill:#e0e0e0"></path><path d="M406.76,409.48S382,381.4,374.32,364.42l5.8-2.47c-4.2.69-8.51-1.12-11.77-3.86s-5.65-6.36-8-9.91l7.64-1.29A28.44,28.44,0,0,1,351.29,334c9,1.49,17.18,6.44,23.9,12.63a117.73,117.73,0,0,1,14.48,16.78,57.39,57.39,0,0,1,5.63,9.25C399.46,381.2,406.77,399.17,406.76,409.48Z" style="fill:#ebebeb"></path><path d="M460.41,304.31a1.06,1.06,0,0,1-.11.29l-.38.82-1.51,3.11c-1.32,2.7-3.2,6.62-5.47,11.49s-4.91,10.69-7.73,17.21-5.78,13.75-8.74,21.39-5.6,15-7.92,21.7-4.28,12.81-5.87,17.94-2.84,9.29-3.67,12.18c-.42,1.41-.75,2.53-1,3.32l-.27.86a1.21,1.21,0,0,1-.11.29,1.14,1.14,0,0,1,.06-.31c.06-.22.13-.51.22-.87.21-.8.51-1.92.89-3.34.77-2.91,2-7.09,3.51-12.24s3.49-11.25,5.76-18S433,366.08,436,358.43s6-14.87,8.79-21.39,5.51-12.33,7.83-17.18,4.25-8.75,5.63-11.42l1.6-3.07c.17-.33.31-.59.42-.79S460.41,304.31,460.41,304.31Z" style="fill:#e0e0e0"></path><path d="M408.85,421.51a3.56,3.56,0,0,1-.12-.51c-.06-.4-.14-.9-.24-1.49-.19-1.3-.51-3.17-1-5.47s-1.09-5-1.9-8-1.86-6.22-3.11-9.57-2.65-6.45-4-9.24-2.68-5.23-3.86-7.25-2.17-3.64-2.89-4.73c-.32-.52-.58-.94-.8-1.28a2.29,2.29,0,0,1-.25-.47s.13.13.34.41l.88,1.22c.77,1.07,1.81,2.66,3,4.66s2.58,4.46,4,7.23,2.77,5.92,4.05,9.27,2.27,6.62,3.09,9.62,1.39,5.74,1.79,8.06.67,4.19.8,5.5l.15,1.5A1.64,1.64,0,0,1,408.85,421.51Z" style="fill:#e0e0e0"></path><rect x="387.35" y="414.91" width="54.16" height="11.05" style="fill:#e0e0e0"></rect><polygon points="392.51 425.95 398.06 457.63 430.79 457.63 436.56 425.95 392.51 425.95" style="fill:#e0e0e0"></polygon><path d="M438.19,426c0,.15-10.25.27-22.89.27s-22.88-.12-22.88-.27,10.24-.26,22.88-.26S438.19,425.81,438.19,426Z" style="fill:#ebebeb"></path><rect x="32.13" y="50.81" width="87.96" height="142.86" style="fill:#e0e0e0"></rect><rect x="29.2" y="50.81" width="87.96" height="142.86" style="fill:#ebebeb"></rect><rect x="32.95" y="53.7" width="80.47" height="137.07" style="fill:#fff"></rect><rect x="48.27" y="71.52" width="49.48" height="101.45" style="fill:#ebebeb"></rect><path d="M48.27,137.06c-.12-9.47,8.57-18.72,18.13-20,4.56-.63,9.41.26,13.67-1.45,7.6-3.06,10-13,17.68-15.92L98.1,173H48.27Z" style="fill:#e0e0e0"></path></g></svg>