<svg version="1.1" id="Layer_1" xmlns="http://www.w3.org/2000/svg" xmlns:xlink="http://www.w3.org/1999/xlink" x="0px" y="0px"
	 width="100%" viewBox="0 0 454 426" enable-background="new 0 0 454 426" xml:space="preserve">
<path fill="transparent" opacity="1.000000" stroke="none" 
	d="
M1.000002,274.000000 
	C1.000000,183.022675 1.000000,92.045334 1.000000,1.034001 
	C152.272964,1.034001 303.545929,1.034001 454.909454,1.034001 
	C454.909454,142.904221 454.909454,284.808502 454.909454,426.856384 
	C303.666748,426.856384 152.333405,426.856384 1.000000,426.856384 
	C1.000000,381.911591 1.000000,336.922791 1.296349,291.196838 
	C8.408249,299.801514 17.631123,305.728882 28.571493,308.963104 
	C38.359188,311.856567 48.203419,314.600311 58.121429,317.002563 
	C76.732834,321.510406 94.485657,328.232025 110.154816,339.226105 
	C120.308640,346.350433 129.352539,355.056702 139.036377,363.365601 
	C141.129074,366.469147 143.548691,369.047241 144.937546,372.095062 
	C148.520370,379.957550 151.647568,388.027618 155.012360,396.338440 
	C155.110748,397.096741 155.153519,397.531403 155.192200,398.296143 
	C155.662674,399.326141 156.137222,400.026031 157.040634,401.358398 
	C157.391174,399.729126 157.581131,398.846252 157.855209,397.503723 
	C158.233948,382.696960 157.998611,368.394653 155.220276,354.225464 
	C154.995560,353.079468 156.413208,351.084351 157.603989,350.326904 
	C158.962952,349.462372 160.922943,349.542633 162.928787,349.152649 
	C161.614761,365.805115 158.712494,382.154449 160.316360,398.717499 
	C161.608994,396.790558 161.993942,394.790863 161.964951,392.797150 
	C161.789703,380.742584 161.927811,368.787506 168.924438,358.159698 
	C170.893173,355.169220 172.587219,351.997894 174.693451,349.180664 
	C177.610077,350.631134 180.237701,351.816772 182.871384,352.988831 
	C200.245834,360.720520 218.633972,364.220184 237.462265,364.823578 
	C247.242279,365.136963 257.081635,363.598877 267.221588,363.082733 
	C268.155182,364.898529 268.761383,366.528778 269.791138,369.297974 
	C272.732178,365.549835 274.875671,362.818146 277.430481,360.048615 
	C287.846985,356.342072 297.852173,352.673370 307.918274,349.423065 
	C308.951019,354.245728 309.922791,358.649994 310.930054,363.424622 
	C311.031189,364.533691 311.096832,365.272461 311.102722,366.313019 
	C311.323120,367.095673 311.603271,367.576538 311.925629,368.386292 
	C312.024689,369.152374 312.081543,369.589630 312.123230,370.291138 
	C312.394684,370.742737 312.681305,370.930084 312.984253,371.546387 
	C315.458160,383.241241 317.915741,394.507172 320.373352,405.773132 
	C321.068329,405.797424 321.763306,405.821716 322.458313,405.846008 
	C322.868073,404.565765 323.277832,403.285522 323.744598,401.738281 
	C323.775391,401.291229 323.749146,401.111115 323.935791,400.622498 
	C327.417847,394.388672 329.685272,387.532013 334.155792,382.723602 
	C344.889679,371.178528 358.869171,365.084839 374.278534,361.858673 
	C379.927307,360.676025 385.550110,358.548706 390.675446,355.875732 
	C398.710205,351.685516 399.478607,343.913879 393.101257,337.599487 
	C388.413666,332.958191 379.789673,331.099792 373.954254,334.085052 
	C368.174438,337.041748 362.712799,340.620361 357.056519,343.554016 
	C353.061737,338.020874 347.440552,338.978058 342.056580,339.233643 
	C343.102051,336.758057 344.090454,334.417603 345.443787,332.040497 
	C347.630249,333.022095 349.400269,334.149811 351.283752,335.036530 
	C355.640961,337.087891 360.019440,338.578247 364.054749,334.379883 
	C360.842285,327.736786 354.691498,328.003204 348.227875,327.759613 
	C349.923462,325.339478 351.091217,323.672729 352.259003,322.005981 
	C352.250854,322.562347 352.242737,323.118744 352.234619,323.675110 
	C356.963013,324.726898 361.656860,326.065674 366.442505,326.642426 
	C367.749969,326.799988 369.333313,324.668671 370.790039,323.587799 
	C369.506348,322.219360 368.458893,320.160614 366.890564,319.623901 
	C363.461487,318.450378 359.767883,318.049805 355.952118,317.287445 
	C357.443665,315.964111 358.853821,314.712982 359.476105,314.160889 
	C364.484375,314.795563 369.210266,315.522125 373.963959,315.888123 
	C374.904541,315.960571 376.715393,314.702393 376.769104,313.959747 
	C376.847717,312.872711 375.935974,310.976471 375.037598,310.685059 
	C371.314758,309.477509 367.438293,308.743591 363.769592,307.871735 
	C364.909180,306.109344 366.158936,304.847443 369.546387,306.623657 
	C371.886322,307.850616 375.527618,307.382904 378.332855,306.670410 
	C380.350220,306.158020 381.947662,303.992218 383.732422,302.563965 
	C381.795807,301.683014 379.853912,300.813232 377.932068,299.901154 
	C377.767090,299.822845 377.735443,299.463654 377.637268,299.223755 
	C386.613159,298.661621 388.726746,297.375275 388.697632,292.227661 
	C387.312988,292.082855 385.880554,291.933044 384.448151,291.783234 
	C386.374573,290.643341 388.487366,290.623749 390.355042,289.937408 
	C394.044678,288.581451 397.750366,287.114716 401.121155,285.134949 
	C402.207245,284.497040 402.264221,282.106934 402.791992,280.518433 
	C400.976410,280.122223 399.004059,279.065186 397.374146,279.451843 
	C392.158783,280.688995 387.536652,283.091949 385.404541,289.087189 
	C384.985657,286.303925 384.680481,284.276245 384.394135,282.373566 
	C376.160614,283.686890 377.946136,291.485382 375.647705,295.616425 
	C374.741730,292.598572 373.884949,289.744537 373.134766,286.556274 
	C374.713562,283.748230 376.490753,281.404297 377.607971,278.779419 
	C384.450409,262.704010 389.448578,246.226456 391.222687,228.638962 
	C392.643555,214.553375 392.204712,200.661362 389.814056,186.921173 
	C386.595734,168.424301 379.830750,151.066788 370.003082,134.976593 
	C360.052094,118.684540 347.369049,104.661743 332.237793,93.286880 
	C322.676788,86.099434 311.542084,81.005356 301.061768,74.539268 
	C301.463806,68.964867 301.917389,63.823528 302.326416,59.187176 
	C297.430756,59.650593 300.251709,54.714024 297.510803,53.780899 
	C297.189728,55.780552 296.902832,57.567261 296.454681,60.358246 
	C296.023804,57.509140 295.756989,55.744785 295.490173,53.980431 
	C295.070862,54.014420 294.651550,54.048405 294.232239,54.082394 
	C294.232239,56.887821 294.232239,59.693245 294.232239,62.498672 
	C293.970093,62.509705 293.707977,62.520737 293.445831,62.531773 
	C293.077057,61.008667 292.708313,59.485565 292.339539,57.962463 
	C291.867615,58.042385 291.395721,58.122303 290.923828,58.202225 
	C291.253357,62.310913 291.582886,66.419601 291.856110,69.826225 
	C289.658813,69.523880 287.748901,69.261078 285.433746,68.999222 
	C274.240265,67.000038 263.523987,64.003174 252.648026,63.218140 
	C233.146561,61.810520 213.822815,63.737301 195.067352,69.984398 
	C171.630768,77.790688 150.791412,89.668571 133.567566,107.857567 
	C132.296387,107.587852 131.341492,107.403236 130.386581,107.218628 
	C130.511032,107.611504 130.635498,108.004379 130.544220,108.560623 
	C130.194214,108.844452 130.059906,108.964905 129.577377,109.052773 
	C129.207413,110.026039 129.185684,111.031891 129.013794,112.354950 
	C128.132248,113.723816 127.408188,114.780670 126.668266,115.826286 
	C121.087288,123.713005 114.926620,131.256973 110.029778,139.547516 
	C96.161194,163.027527 90.288254,188.765533 89.583237,215.945068 
	C88.388313,219.120590 87.581154,222.238083 86.793678,225.279541 
	C86.409241,224.585510 85.530602,223.310242 84.955757,221.910233 
	C81.660515,213.884949 73.942047,208.664352 65.956932,208.970673 
	C62.663605,209.097015 61.506187,210.266876 62.839649,213.516312 
	C65.309074,219.533920 69.835350,223.210358 75.926262,224.953644 
	C79.797607,226.061676 83.788933,226.750519 87.726456,227.627335 
	C87.640816,228.085022 87.555176,228.542725 87.469536,229.000427 
	C86.488998,229.000427 85.467308,228.823868 84.537292,229.040619 
	C83.031403,229.391602 81.585701,230.000839 80.114586,230.501038 
	C80.725807,232.127502 80.872108,234.551880 82.035919,235.229996 
	C85.450554,237.219620 89.269775,238.514908 92.961380,240.358383 
	C93.020096,241.003448 93.047958,241.372269 92.677643,241.854126 
	C90.531349,242.743591 88.783241,243.520020 87.035133,244.296448 
	C87.904160,245.912216 88.464180,247.850342 89.724213,249.058228 
	C91.144699,250.419922 93.195404,251.124161 94.986862,252.470367 
	C95.666710,254.499649 96.331703,256.172943 96.673553,258.000488 
	C92.654427,262.248108 93.259857,263.614044 99.906456,266.387299 
	C101.023819,269.379150 102.061913,271.982635 102.842644,274.790833 
	C100.815392,278.696045 103.124008,280.203766 106.299194,281.722351 
	C108.103828,285.028076 109.634140,288.004486 110.991119,291.341431 
	C111.220291,293.272217 111.622795,294.842468 111.667213,296.745697 
	C104.869644,291.555969 98.717621,285.647461 91.930878,280.590820 
	C77.786713,270.052399 62.313774,261.810547 45.530365,256.279053 
	C30.470194,251.315460 9.166705,260.512482 2.940448,272.987976 
	C2.676675,273.516510 1.663869,273.671173 1.000002,274.000000 
z"/>
<path fill="#2D76E2" opacity="1.000000" stroke="none" 
	d="
M1.000002,274.467590 
	C1.663869,273.671173 2.676675,273.516510 2.940448,272.987976 
	C9.166705,260.512482 30.470194,251.315460 45.530365,256.279053 
	C62.313774,261.810547 77.786713,270.052399 91.930878,280.590820 
	C98.717621,285.647461 104.869644,291.555969 111.635033,296.733398 
	C111.960938,296.388092 112.012604,296.455688 111.635124,296.707886 
	C113.839973,299.970032 116.422302,302.980011 118.864883,306.312866 
	C116.994659,310.146271 119.761307,311.412933 121.946144,312.806274 
	C123.869041,314.032532 125.976250,314.969788 128.066086,316.345947 
	C129.074295,317.498413 130.018463,318.339600 130.887207,319.512512 
	C128.735443,321.448517 126.659134,323.052734 124.582809,324.656982 
	C126.811470,326.661896 129.034836,328.672760 131.276520,330.662964 
	C131.514206,330.873993 131.859314,330.964020 131.922180,331.364075 
	C130.993286,332.064270 130.173645,332.395081 129.625076,332.980072 
	C128.346588,334.343475 127.198524,335.829163 125.997612,337.265320 
	C127.680115,337.895691 129.362625,338.526062 130.984604,339.497803 
	C127.121971,343.909515 130.967865,346.219666 133.016937,349.318237 
	C134.667725,352.618896 136.452240,355.480530 137.914505,358.498291 
	C138.572495,359.856232 138.587173,361.525940 138.893753,363.054169 
	C129.352539,355.056702 120.308640,346.350433 110.154816,339.226105 
	C94.485657,328.232025 76.732834,321.510406 58.121429,317.002563 
	C48.203419,314.600311 38.359188,311.856567 28.571493,308.963104 
	C17.631123,305.728882 8.408249,299.801514 1.296349,290.729858 
	C1.000000,285.645081 1.000000,280.290131 1.000002,274.467590 
z"/>
<path fill="#E4F3FE" opacity="1.000000" stroke="none" 
	d="
M111.164459,290.980896 
	C109.634140,288.004486 108.103828,285.028076 106.841797,281.765930 
	C113.853981,282.782318 120.236015,282.419189 126.082016,278.156738 
	C128.518860,276.379944 131.448242,275.293304 134.081238,273.767853 
	C139.592606,270.574829 142.710358,265.594666 143.886993,259.493286 
	C144.179474,257.976624 143.607651,255.708603 142.555359,254.724762 
	C141.864990,254.079300 139.325180,254.690170 138.085022,255.479233 
	C132.683731,258.915985 129.160385,263.741486 128.034576,270.205750 
	C127.923218,270.845215 126.710663,271.292877 126.001465,271.475037 
	C124.996819,269.745758 123.999939,268.371033 122.997398,266.653931 
	C122.489258,265.538818 121.986771,264.766113 121.484283,263.993439 
	C121.104820,264.352173 120.725357,264.710876 120.345894,265.069611 
	C121.229576,265.714050 122.113258,266.358459 123.099396,267.265533 
	C123.831360,269.032471 124.460869,270.536804 125.060867,272.277557 
	C125.031349,272.514008 125.013954,272.990265 124.989059,273.007263 
	C124.964172,273.024292 124.933197,273.076050 124.544281,273.124786 
	C116.884972,269.889130 109.911842,271.035492 103.100006,274.586121 
	C102.061913,271.982635 101.023819,269.379150 100.377739,266.351318 
	C111.934349,267.928802 120.088295,262.841614 126.098701,254.221664 
	C128.335281,251.014053 128.971237,246.574951 129.827301,242.587967 
	C130.096527,241.334076 129.040527,238.960220 127.977547,238.492065 
	C126.926796,238.029327 124.560593,238.892334 123.720505,239.936996 
	C121.565918,242.616348 119.702232,245.602966 118.178566,248.691849 
	C117.069717,250.939835 116.688080,253.546524 115.637428,256.024353 
	C114.443390,256.421021 113.594131,256.786652 112.347046,257.099426 
	C106.965050,257.313141 101.980873,257.579681 96.996704,257.846222 
	C96.331703,256.172943 95.666710,254.499649 95.395233,252.421814 
	C100.744377,252.017273 105.700012,252.017273 110.327751,252.017273 
	C111.082245,248.673691 111.443123,246.758499 111.951073,244.883163 
	C113.427719,239.431503 112.529800,234.292496 109.348572,229.777222 
	C108.050842,227.935303 105.717232,226.823196 103.854912,225.379044 
	C102.925133,227.653824 101.985939,229.924820 101.068817,232.204681 
	C100.447403,233.749481 99.857033,235.306747 99.037697,236.497925 
	C98.544815,234.438370 97.998466,232.733292 98.036659,231.041382 
	C98.185852,224.432983 95.813080,219.261093 89.970993,215.887024 
	C90.288254,188.765533 96.161194,163.027527 110.029778,139.547516 
	C114.926620,131.256973 121.087288,123.713005 126.668266,115.826286 
	C127.408188,114.780670 128.132248,113.723816 129.307175,112.485107 
	C131.029068,113.585144 133.377975,114.861023 133.391586,116.161354 
	C133.438507,120.644890 136.752747,122.422417 139.415726,124.771339 
	C141.513336,126.621582 143.803833,128.253128 145.855316,130.331818 
	C142.687103,136.861694 143.587387,142.068176 149.041122,146.628738 
	C155.515503,152.042801 161.453949,158.119583 168.097061,163.303848 
	C174.583771,168.366058 181.170380,173.842468 188.621597,176.978546 
	C196.539597,180.311081 205.459442,181.519989 214.063919,182.888565 
	C221.839493,184.125305 221.933624,183.664841 223.151993,190.856033 
	C223.674988,193.942841 223.763565,197.140076 224.609253,200.128754 
	C227.613617,210.746338 230.859009,221.295715 233.678970,231.987167 
	C227.084946,235.106400 221.492188,239.060013 218.401688,245.402008 
	C216.405670,249.498032 215.435837,254.094101 213.658447,258.604126 
	C211.521973,259.903015 209.558701,260.864685 207.970947,262.255157 
	C188.953781,278.909454 176.960953,299.944641 169.359283,324.044495 
	C166.662521,324.462341 164.329727,324.753967 162.115067,324.725677 
	C164.091019,321.502045 166.249756,318.735199 167.662827,315.629089 
	C168.251663,314.334747 167.754028,311.883301 166.799561,310.782135 
	C166.160507,310.044830 163.645187,310.307373 162.319077,310.902069 
	C157.000519,313.287323 153.084488,317.168335 150.951981,322.715179 
	C150.520432,323.837677 149.857956,324.871399 149.301956,325.946045 
	C149.226883,325.798828 149.141693,325.655762 149.079605,325.503265 
	C149.017471,325.350677 148.978439,325.188660 148.950729,324.640717 
	C147.648788,319.167358 146.325409,314.084045 145.332489,308.898743 
	C153.018555,305.651794 157.185425,299.943024 158.494659,292.213867 
	C158.762482,290.632843 158.243912,288.174316 157.153854,287.338745 
	C156.252014,286.647430 153.624725,287.259888 152.364197,288.148743 
	C147.083801,291.872162 143.826279,296.912537 143.360657,303.686707 
	C140.937088,299.500122 138.840408,295.236420 136.923950,290.651672 
	C144.510849,288.048218 150.188004,283.740417 152.737137,276.205719 
	C153.307465,274.519928 152.688446,272.431793 152.616989,270.528870 
	C150.576584,270.694611 148.196716,270.239502 146.556122,271.136475 
	C140.357910,274.525299 136.787140,279.979675 135.496429,286.970215 
	C135.362915,286.965179 135.095734,286.965088 134.739792,287.036560 
	C133.463852,287.210205 132.428467,287.640472 131.641785,287.363739 
	C124.107986,284.713409 117.431427,286.620544 111.164459,290.980896 
M112.801025,253.392471 
	C113.301178,253.710922 113.801331,254.029373 114.301491,254.347824 
	C114.374489,254.071411 114.552025,253.575851 114.504066,253.552979 
	C114.090630,253.355743 113.636520,253.243759 112.801025,253.392471 
M133.355667,285.523376 
	C133.152786,285.470184 132.949921,285.417023 132.747040,285.363861 
	C132.877609,285.494263 133.008194,285.624695 133.355667,285.523376 
M131.645767,283.474945 
	C131.848648,283.528168 132.051544,283.581390 132.254425,283.634613 
	C132.123886,283.504181 131.993347,283.373718 131.645767,283.474945 
M130.649063,281.474579 
	C130.850143,281.527405 131.051208,281.580261 131.252274,281.633118 
	C131.122955,281.503723 130.993637,281.374298 130.649063,281.474579 
M130.352966,279.522736 
	C130.151886,279.469971 129.950790,279.417206 129.749695,279.364441 
	C129.879089,279.493835 130.008484,279.623230 130.352966,279.522736 
z"/>
<path fill="#E5F3FE" opacity="1.000000" stroke="none" 
	d="
M301.113251,74.972336 
	C311.542084,81.005356 322.676788,86.099434 332.237793,93.286880 
	C347.369049,104.661743 360.052094,118.684540 370.003082,134.976593 
	C379.830750,151.066788 386.595734,168.424301 389.814056,186.921173 
	C392.204712,200.661362 392.643555,214.553375 391.222687,228.638962 
	C389.448578,246.226456 384.450409,262.704010 377.607971,278.779419 
	C376.490753,281.404297 374.713562,283.748230 372.829651,286.714111 
	C369.262970,292.538177 366.108032,297.870178 362.716827,303.601532 
	C361.642944,301.531433 360.738708,299.252228 359.348328,297.323425 
	C358.599182,296.284241 357.017395,295.845276 355.811279,295.135498 
	C355.183685,296.358490 353.849976,297.717346 354.054535,298.780182 
	C354.815277,302.733002 356.081726,306.588470 357.323761,311.078522 
	C356.523041,311.956116 355.147491,313.463776 353.840668,314.896088 
	C351.606232,311.735352 349.768677,308.819092 347.564148,306.213287 
	C346.914398,305.445221 345.135773,305.166809 344.051910,305.420929 
	C343.480408,305.554962 342.736176,307.525116 343.026947,308.313049 
	C344.203003,311.499512 345.769043,314.540649 347.153534,317.652191 
	C347.790405,319.083496 348.340546,320.553375 348.929993,322.005768 
	C348.326569,322.339996 347.723145,322.674225 347.119690,323.008453 
	C345.148468,320.931549 343.351257,318.637848 341.138519,316.861816 
	C339.878845,315.850708 337.940399,315.685272 336.307587,315.139038 
	C336.147430,316.773254 335.439331,318.605591 335.943329,319.999695 
	C336.934357,322.740875 338.598969,325.238586 339.695740,327.957977 
	C338.883362,328.714386 338.360168,329.349792 337.537170,329.836182 
	C336.658691,329.100494 336.179016,328.309662 335.480194,327.970886 
	C334.139648,327.321014 332.674683,326.927765 331.261353,326.428009 
	C330.911865,327.948608 330.318512,329.463013 330.279694,330.991516 
	C330.238800,332.599792 330.728241,334.221558 330.630157,335.914307 
	C327.861603,337.628754 325.448822,339.266357 322.756744,341.024841 
	C321.969086,341.474152 321.460724,341.802612 320.739197,342.077209 
	C320.526093,342.023376 320.087433,342.053375 320.052948,341.662781 
	C324.938568,329.494324 328.398804,316.792358 335.128632,306.159912 
	C344.689972,291.053833 357.047913,277.748352 367.441284,263.126465 
	C373.251495,254.952454 378.606384,246.096054 382.186829,236.785843 
	C386.755707,224.905365 381.182678,214.758347 369.910828,210.740891 
	C355.661804,205.662354 336.681000,211.494690 328.769714,224.274200 
	C323.987030,231.999893 320.571838,240.572128 316.223755,248.603729 
	C303.599457,242.922318 291.293640,237.401184 279.042480,231.515961 
	C280.572937,226.407700 282.384247,221.738083 283.458313,216.904633 
	C286.115936,204.945221 289.426239,192.828293 283.720886,180.899719 
	C281.968536,177.236038 282.823059,175.206604 285.563690,172.891464 
	C294.317627,165.496567 300.608459,156.546478 302.505554,144.966522 
	C304.671173,131.747345 306.989319,118.550240 308.925903,105.297462 
	C310.154755,96.887955 308.590668,89.323639 300.381226,84.660141 
	C300.129944,84.517410 300.030334,84.107697 299.855713,83.401764 
	C300.272064,80.311508 300.692657,77.641930 301.113251,74.972336 
z"/>
<path fill="#E5F2FD" opacity="1.000000" stroke="none" 
	d="
M133.883850,107.942673 
	C150.791412,89.668571 171.630768,77.790688 195.067352,69.984398 
	C213.822815,63.737301 233.146561,61.810520 252.648026,63.218140 
	C263.523987,64.003174 274.240265,67.000038 285.606537,69.297058 
	C290.844513,73.245262 293.009308,77.939430 291.823303,84.048798 
	C284.349640,86.461975 279.550323,91.030815 279.152527,98.684982 
	C278.907257,103.404793 280.113037,108.185066 280.459534,112.953300 
	C281.630219,129.063065 283.103790,145.160919 270.538269,158.439133 
	C268.217407,160.891663 266.320984,162.381378 263.017151,161.570618 
	C263.050507,159.451324 263.131348,157.754761 263.568939,155.992828 
	C264.843140,154.437363 266.329285,153.036957 266.580841,151.441879 
	C267.746613,144.049164 266.837341,136.930969 262.913086,130.223236 
	C268.819519,124.636375 270.159576,119.248787 267.209656,113.571487 
	C264.370514,108.107399 258.648560,105.927605 251.335327,107.524124 
	C247.611740,108.337006 243.604019,106.038620 242.079941,102.145790 
	C237.793137,91.196419 229.712463,85.160606 218.155823,83.610710 
	C217.333511,83.500427 216.497421,83.466988 215.666656,83.449905 
	C206.375183,83.258888 197.080750,83.164894 187.792542,82.872940 
	C175.793900,82.495781 167.072449,92.862389 169.444122,104.030022 
	C171.472504,113.581184 172.560944,123.331963 173.759216,132.855789 
	C172.144211,131.484146 170.702698,130.363159 169.548874,128.998856 
	C164.496399,123.024551 158.272537,121.623238 150.682007,123.833115 
	C149.185120,120.056969 148.007324,116.460182 146.728912,112.556160 
	C146.025894,114.049759 145.400482,115.378502 144.740555,116.780556 
	C140.747864,114.910042 140.403259,108.339523 134.540405,109.705795 
	C134.462723,109.723892 134.108826,108.556656 133.883850,107.942673 
z"/>
<path fill="#E5F2FE" opacity="1.000000" stroke="none" 
	d="
M266.894196,362.897186 
	C257.081635,363.598877 247.242279,365.136963 237.462265,364.823578 
	C218.633972,364.220184 200.245834,360.720520 182.871384,352.988831 
	C180.237701,351.816772 177.610077,350.631134 174.779327,348.821716 
	C176.357788,345.490417 178.136581,342.789124 180.390472,340.045654 
	C190.672195,339.979736 200.485443,340.173584 210.283783,339.875916 
	C221.857193,339.524323 232.312210,336.489685 241.032242,327.970123 
	C253.242371,316.040741 261.104187,301.693085 266.780487,285.880737 
	C267.315430,284.390564 268.234406,283.038300 269.383972,281.770081 
	C282.114075,282.997131 294.435211,284.076141 307.889801,285.254395 
	C306.246887,289.926422 305.306610,294.325317 303.255554,298.124542 
	C295.700653,312.118774 287.747345,325.897552 280.038513,339.809814 
	C279.229889,341.269104 279.047363,343.075317 278.328247,344.983490 
	C277.344788,346.178497 276.607452,347.110596 275.493652,347.979675 
	C273.483795,349.473450 271.278320,350.749390 270.345154,352.649994 
	C268.770416,355.857330 268.001801,359.460480 266.894196,362.897186 
z"/>
<path fill="#2F77E3" opacity="1.000000" stroke="none" 
	d="
M316.542206,248.764008 
	C320.571838,240.572128 323.987030,231.999893 328.769714,224.274200 
	C336.681000,211.494690 355.661804,205.662354 369.910828,210.740891 
	C381.182678,214.758347 386.755707,224.905365 382.186829,236.785843 
	C378.606384,246.096054 373.251495,254.952454 367.441284,263.126465 
	C357.047913,277.748352 344.689972,291.053833 335.128632,306.159912 
	C328.398804,316.792358 324.938568,329.494324 320.020721,342.066162 
	C319.036163,346.890289 318.049347,350.920410 317.011353,355.335968 
	C316.661530,357.497375 316.362915,359.273346 316.035706,361.457123 
	C315.684174,363.613251 315.361237,365.361572 314.872681,366.718506 
	C314.307007,360.449005 313.906921,354.570892 313.506866,348.692780 
	C313.004181,348.712311 312.501465,348.731812 311.998779,348.751343 
	C311.998779,350.643524 312.131378,352.547211 311.968018,354.425171 
	C311.717041,357.310852 311.262665,360.178802 310.894592,363.054291 
	C309.922791,358.649994 308.951019,354.245728 307.975952,348.997742 
	C307.265930,341.531708 306.559174,334.909424 306.001282,327.964417 
	C308.434021,325.092590 310.717896,322.543457 313.278015,320.272400 
	C313.179810,324.435638 312.642883,328.313690 312.474152,332.207733 
	C312.285553,336.559784 312.430878,340.926300 312.430878,345.286499 
	C312.788330,345.276184 313.145782,345.265900 313.503204,345.255585 
	C314.304840,335.800171 315.106506,326.344788 315.936157,316.922913 
	C315.964203,316.956390 315.876862,316.955627 316.135681,316.820068 
	C316.606537,316.158844 316.818542,315.633179 317.150818,314.789703 
	C323.869995,304.760651 330.759430,295.230774 336.973297,285.279053 
	C341.690765,277.723938 340.185394,269.954498 334.245575,263.821808 
	C328.880951,258.282959 322.483948,253.743942 316.542206,248.764008 
z"/>
<path fill="#2D76E2" opacity="1.000000" stroke="none" 
	d="
M357.111572,343.926178 
	C362.712799,340.620361 368.174438,337.041748 373.954254,334.085052 
	C379.789673,331.099792 388.413666,332.958191 393.101257,337.599487 
	C399.478607,343.913879 398.710205,351.685516 390.675446,355.875732 
	C385.550110,358.548706 379.927307,360.676025 374.278534,361.858673 
	C358.869171,365.084839 344.889679,371.178528 334.155792,382.723602 
	C329.685272,387.532013 327.417847,394.388672 323.740723,400.201538 
	C323.921661,397.365265 324.510437,394.641418 325.432373,391.785645 
	C328.484070,385.138763 331.202576,378.623779 334.260193,372.025696 
	C336.369629,369.285828 338.140045,366.629150 340.034058,363.665192 
	C341.077057,361.940338 341.996490,360.522766 343.225006,358.955902 
	C345.347687,356.257233 347.161285,353.707855 349.266876,351.024231 
	C350.678009,349.647369 351.797150,348.404785 353.262268,347.121002 
	C354.776001,346.028564 355.943787,344.977356 357.111572,343.926178 
z"/>
<path fill="#77AFFF" opacity="1.000000" stroke="none" 
	d="
M339.984894,327.837006 
	C338.598969,325.238586 336.934357,322.740875 335.943329,319.999695 
	C335.439331,318.605591 336.147430,316.773254 336.307587,315.139038 
	C337.940399,315.685272 339.878845,315.850708 341.138519,316.861816 
	C343.351257,318.637848 345.148468,320.931549 347.119690,323.008453 
	C347.723145,322.674225 348.326569,322.339996 348.929993,322.005768 
	C348.340546,320.553375 347.790405,319.083496 347.153534,317.652191 
	C345.769043,314.540649 344.203003,311.499512 343.026947,308.313049 
	C342.736176,307.525116 343.480408,305.554962 344.051910,305.420929 
	C345.135773,305.166809 346.914398,305.445221 347.564148,306.213287 
	C349.768677,308.819092 351.606232,311.735352 353.840668,314.896088 
	C355.147491,313.463776 356.523041,311.956116 357.323761,311.078522 
	C356.081726,306.588470 354.815277,302.733002 354.054535,298.780182 
	C353.849976,297.717346 355.183685,296.358490 355.811279,295.135498 
	C357.017395,295.845276 358.599182,296.284241 359.348328,297.323425 
	C360.738708,299.252228 361.642944,301.531433 362.716827,303.601532 
	C366.108032,297.870178 369.262970,292.538177 372.723022,287.048340 
	C373.884949,289.744537 374.741730,292.598572 375.647705,295.616425 
	C377.946136,291.485382 376.160614,283.686890 384.394135,282.373566 
	C384.680481,284.276245 384.985657,286.303925 385.404541,289.087189 
	C387.536652,283.091949 392.158783,280.688995 397.374146,279.451843 
	C399.004059,279.065186 400.976410,280.122223 402.791992,280.518433 
	C402.264221,282.106934 402.207245,284.497040 401.121155,285.134949 
	C397.750366,287.114716 394.044678,288.581451 390.355042,289.937408 
	C388.487366,290.623749 386.374573,290.643341 384.448151,291.783234 
	C385.880554,291.933044 387.312988,292.082855 388.697632,292.227661 
	C388.726746,297.375275 386.613159,298.661621 377.637268,299.223755 
	C377.735443,299.463654 377.767090,299.822845 377.932068,299.901154 
	C379.853912,300.813232 381.795807,301.683014 383.732422,302.563965 
	C381.947662,303.992218 380.350220,306.158020 378.332855,306.670410 
	C375.527618,307.382904 371.886322,307.850616 369.546387,306.623657 
	C366.158936,304.847443 364.909180,306.109344 363.769592,307.871735 
	C367.438293,308.743591 371.314758,309.477509 375.037598,310.685059 
	C375.935974,310.976471 376.847717,312.872711 376.769104,313.959747 
	C376.715393,314.702393 374.904541,315.960571 373.963959,315.888123 
	C369.210266,315.522125 364.484375,314.795563 359.476105,314.160889 
	C358.853821,314.712982 357.443665,315.964111 355.952118,317.287445 
	C359.767883,318.049805 363.461487,318.450378 366.890564,319.623901 
	C368.458893,320.160614 369.506348,322.219360 370.790039,323.587799 
	C369.333313,324.668671 367.749969,326.799988 366.442505,326.642426 
	C361.656860,326.065674 356.963013,324.726898 352.234619,323.675110 
	C352.242737,323.118744 352.250854,322.562347 352.259003,322.005981 
	C351.091217,323.672729 349.923462,325.339478 348.227875,327.759613 
	C354.691498,328.003204 360.842285,327.736786 364.054749,334.379883 
	C360.019440,338.578247 355.640961,337.087891 351.283752,335.036530 
	C349.400269,334.149811 347.630249,333.022095 345.250885,331.852417 
	C344.564484,331.575592 344.435883,331.450226 344.492737,331.066650 
	C343.113770,329.817993 341.549316,328.827484 339.984894,327.837006 
z"/>
<path fill="#3184FD" opacity="1.000000" stroke="none" 
	d="
M179.915390,340.087860 
	C178.136581,342.789124 176.357788,345.490417 174.493134,348.550598 
	C172.587219,351.997894 170.893173,355.169220 168.924438,358.159698 
	C161.927811,368.787506 161.789703,380.742584 161.964951,392.797150 
	C161.993942,394.790863 161.608994,396.790558 160.316360,398.717499 
	C158.712494,382.154449 161.614761,365.805115 162.928787,349.152649 
	C160.922943,349.542633 158.962952,349.462372 157.603989,350.326904 
	C156.413208,351.084351 154.995560,353.079468 155.220276,354.225464 
	C157.998611,368.394653 158.233948,382.696960 157.533310,397.507202 
	C156.483627,397.968903 155.839966,397.967499 155.196304,397.966064 
	C155.153519,397.531403 155.110748,397.096741 155.307190,396.074310 
	C155.675323,393.610748 155.804214,391.734985 155.959991,389.403259 
	C155.109253,376.402985 154.231613,363.858612 153.370346,351.548065 
	C149.470230,352.138855 146.255569,352.625824 142.817413,352.829803 
	C139.402374,351.345490 136.210831,350.144165 133.019287,348.942810 
	C130.967865,346.219666 127.121971,343.909515 131.371994,339.435852 
	C132.865753,338.979218 133.911575,338.925873 135.195618,339.165894 
	C136.664474,339.619415 137.895126,339.779633 139.515778,339.963806 
	C143.384094,341.566406 146.862411,343.145050 150.525391,344.945160 
	C151.050140,345.322571 151.390244,345.478455 151.730347,345.634369 
	C151.510590,345.068909 151.290848,344.503418 151.035309,343.554260 
	C150.667526,341.489380 150.335526,339.808197 150.380127,338.061462 
	C153.544846,338.067078 156.342865,338.013214 159.119080,338.233917 
	C166.056458,338.785522 172.983932,339.461670 179.915390,340.087860 
z"/>
<path fill="#77AFFF" opacity="1.000000" stroke="none" 
	d="
M357.056488,343.553986 
	C355.943787,344.977356 354.776001,346.028564 352.889709,347.050049 
	C347.874847,346.462616 343.578461,345.904846 338.814026,345.286316 
	C338.168427,346.690094 337.054932,349.111206 336.113342,351.158478 
	C340.560730,351.158478 344.767822,351.158478 348.974884,351.158478 
	C347.161285,353.707855 345.347687,356.257233 342.796509,358.909912 
	C339.193817,358.674377 336.328705,358.335602 333.387909,357.987885 
	C332.486145,360.706360 331.666351,363.177643 330.874939,365.563507 
	C334.303040,364.959869 337.106750,364.466156 339.910461,363.972473 
	C338.140045,366.629150 336.369629,369.285828 333.869995,371.977600 
	C331.910583,371.714539 330.680450,371.416382 328.847046,370.972015 
	C327.590088,377.996826 326.344666,384.957214 325.099243,391.917603 
	C324.510437,394.641418 323.921661,397.365265 323.527893,400.510071 
	C323.749146,401.111115 323.775391,401.291229 323.465088,401.354248 
	C322.728271,399.809784 322.327942,398.382385 321.964050,396.542969 
	C323.677917,387.554382 325.355286,378.977783 326.694855,372.128448 
	C322.548828,367.807495 319.306580,364.428436 316.064301,361.049347 
	C316.362915,359.273346 316.661530,357.497375 317.378998,355.362305 
	C322.986389,356.445404 326.367065,359.979187 328.956146,365.285553 
	C330.106049,362.004700 331.040833,359.337646 332.075745,356.384949 
	C324.866180,354.333588 321.868591,349.016357 320.952332,342.131042 
	C321.460724,341.802612 321.969086,341.474152 323.133789,341.067383 
	C329.796692,341.953156 331.800568,346.612427 333.606201,351.757538 
	C335.154327,348.628235 336.628815,345.647705 337.798950,343.282501 
	C335.278687,340.528442 333.132294,338.182922 330.985931,335.837433 
	C330.728241,334.221558 330.238800,332.599792 330.279694,330.991516 
	C330.318512,329.463013 330.911865,327.948608 331.261353,326.428009 
	C332.674683,326.927765 334.139648,327.321014 335.480194,327.970886 
	C336.179016,328.309662 336.658691,329.100494 337.698212,330.181396 
	C338.961884,332.934113 339.764679,335.192505 340.555389,337.416962 
	C341.814056,335.373230 343.060669,333.349030 344.307281,331.324829 
	C344.435883,331.450226 344.564484,331.575592 344.885986,331.889069 
	C344.090454,334.417603 343.102051,336.758057 342.056580,339.233643 
	C347.440552,338.978058 353.061737,338.020874 357.056488,343.553986 
z"/>
<path fill="#3287FE" opacity="1.000000" stroke="none" 
	d="
M89.583237,215.945068 
	C95.813080,219.261093 98.185852,224.432983 98.036659,231.041382 
	C97.998466,232.733292 98.544815,234.438370 98.770500,236.657593 
	C98.477463,237.730881 98.236542,238.283981 97.634048,238.941528 
	C95.825165,239.391373 94.377846,239.736740 92.930534,240.082123 
	C89.269775,238.514908 85.450554,237.219620 82.035919,235.229996 
	C80.872108,234.551880 80.725807,232.127502 80.114586,230.501038 
	C81.585701,230.000839 83.031403,229.391602 84.537292,229.040619 
	C85.467308,228.823868 86.488998,229.000427 87.469536,229.000427 
	C87.555176,228.542725 87.640816,228.085022 87.726456,227.627335 
	C83.788933,226.750519 79.797607,226.061676 75.926262,224.953644 
	C69.835350,223.210358 65.309074,219.533920 62.839649,213.516312 
	C61.506187,210.266876 62.663605,209.097015 65.956932,208.970673 
	C73.942047,208.664352 81.660515,213.884949 84.955757,221.910233 
	C85.530602,223.310242 86.409241,224.585510 86.793678,225.279541 
	C87.581154,222.238083 88.388313,219.120590 89.583237,215.945068 
z"/>
<path fill="#3589FF" opacity="1.000000" stroke="none" 
	d="
M125.013954,272.990265 
	C125.013954,272.990265 125.031349,272.514008 125.294220,272.240540 
	C125.557098,271.967102 126.009232,271.829590 126.009232,271.829590 
	C126.710663,271.292877 127.923218,270.845215 128.034576,270.205750 
	C129.160385,263.741486 132.683731,258.915985 138.085022,255.479233 
	C139.325180,254.690170 141.864990,254.079300 142.555359,254.724762 
	C143.607651,255.708603 144.179474,257.976624 143.886993,259.493286 
	C142.710358,265.594666 139.592606,270.574829 134.081238,273.767853 
	C131.448242,275.293304 128.518860,276.379944 126.082016,278.156738 
	C120.236015,282.419189 113.853981,282.782318 106.567482,281.436615 
	C103.124008,280.203766 100.815392,278.696045 102.842651,274.790833 
	C109.911842,271.035492 116.884972,269.889130 124.531143,273.373169 
	C125.138191,273.598938 125.369446,273.625031 125.600708,273.651093 
	C125.405128,273.430817 125.209541,273.210541 125.013954,272.990265 
z"/>
<path fill="#3589FF" opacity="1.000000" stroke="none" 
	d="
M110.991119,291.341431 
	C117.431427,286.620544 124.107986,284.713409 131.641785,287.363739 
	C132.428467,287.640472 133.463852,287.210205 134.781982,287.212982 
	C135.330048,287.203705 135.479980,287.089447 135.629913,286.975220 
	C136.787140,279.979675 140.357910,274.525299 146.556122,271.136475 
	C148.196716,270.239502 150.576584,270.694611 152.616989,270.528870 
	C152.688446,272.431793 153.307465,274.519928 152.737137,276.205719 
	C150.188004,283.740417 144.510849,288.048218 136.749969,290.788940 
	C136.167145,291.456512 136.034195,291.715027 135.638000,291.926666 
	C129.279999,296.387268 122.526970,298.130280 114.678696,297.137939 
	C113.529228,296.838745 112.770912,296.647217 112.012604,296.455688 
	C112.012604,296.455688 111.960938,296.388092 111.993118,296.400391 
	C111.622795,294.842468 111.220291,293.272217 110.991119,291.341431 
z"/>
<path fill="#E3F0FD" opacity="1.000000" stroke="none" 
	d="
M305.852448,328.287109 
	C306.559174,334.909424 307.265930,341.531708 307.915009,348.579346 
	C297.852173,352.673370 287.846985,356.342072 277.305298,359.690491 
	C277.470184,357.279388 278.171600,355.188538 279.146759,352.907532 
	C280.654816,351.444427 281.889130,350.171448 283.484344,348.948853 
	C285.441589,347.994202 287.285828,347.238708 288.591614,345.941284 
	C294.429108,340.140961 300.113037,334.186127 305.852448,328.287109 
z"/>
<path fill="#3589FF" opacity="1.000000" stroke="none" 
	d="
M97.995621,238.837067 
	C98.236542,238.283981 98.477463,237.730881 98.985580,237.018127 
	C99.857033,235.306747 100.447403,233.749481 101.068817,232.204681 
	C101.985939,229.924820 102.925133,227.653824 103.854912,225.379044 
	C105.717232,226.823196 108.050842,227.935303 109.348572,229.777222 
	C112.529800,234.292496 113.427719,239.431503 111.951073,244.883163 
	C111.443123,246.758499 111.082245,248.673691 110.327751,252.017273 
	C105.700012,252.017273 100.744377,252.017273 95.380371,252.065811 
	C93.195404,251.124161 91.144699,250.419922 89.724213,249.058228 
	C88.464180,247.850342 87.904160,245.912216 87.035133,244.296448 
	C88.783241,243.520020 90.531349,242.743591 93.097961,241.901642 
	C96.769485,242.128937 99.622520,242.421768 102.475548,242.714584 
	C102.629105,242.455963 102.782654,242.197342 102.936203,241.938736 
	C101.289345,240.904846 99.642487,239.870956 97.995621,238.837067 
z"/>
<path fill="#3589FF" opacity="1.000000" stroke="none" 
	d="
M115.982224,255.993286 
	C116.688080,253.546524 117.069717,250.939835 118.178566,248.691849 
	C119.702232,245.602966 121.565918,242.616348 123.720505,239.936996 
	C124.560593,238.892334 126.926796,238.029327 127.977547,238.492065 
	C129.040527,238.960220 130.096527,241.334076 129.827301,242.587967 
	C128.971237,246.574951 128.335281,251.014053 126.098701,254.221664 
	C120.088295,262.841614 111.934349,267.928802 100.298470,265.962952 
	C93.259857,263.614044 92.654427,262.248108 96.673553,258.000488 
	C101.980873,257.579681 106.965050,257.313141 112.571808,257.331970 
	C115.313263,259.117981 116.084991,258.306183 115.982224,255.993286 
z"/>
<path fill="#FFB59D" opacity="1.000000" stroke="none" 
	d="
M292.160889,83.892975 
	C293.009308,77.939430 290.844513,73.245262 286.011780,69.296120 
	C287.748901,69.261078 289.658813,69.523880 291.856110,69.826225 
	C291.582886,66.419601 291.253357,62.310913 290.923828,58.202225 
	C291.395721,58.122303 291.867615,58.042385 292.339539,57.962463 
	C292.708313,59.485565 293.077057,61.008667 293.445831,62.531773 
	C293.707977,62.520737 293.970093,62.509705 294.232239,62.498672 
	C294.232239,59.693245 294.232239,56.887821 294.232239,54.082394 
	C294.651550,54.048405 295.070862,54.014420 295.490173,53.980431 
	C295.756989,55.744785 296.023804,57.509140 296.454681,60.358246 
	C296.902832,57.567261 297.189728,55.780552 297.510803,53.780899 
	C300.251709,54.714024 297.430756,59.650593 302.326416,59.187176 
	C301.917389,63.823528 301.463806,68.964867 301.061768,74.539276 
	C300.692657,77.641930 300.272064,80.311508 299.438477,83.496437 
	C296.737305,83.972183 294.449097,83.932579 292.160889,83.892975 
z"/>
<path fill="#FEB7A0" opacity="1.000000" stroke="none" 
	d="
M133.567566,107.857567 
	C134.108826,108.556656 134.462723,109.723892 134.540405,109.705795 
	C140.403259,108.339523 140.747864,114.910042 144.740555,116.780556 
	C145.400482,115.378502 146.025894,114.049759 146.728912,112.556160 
	C148.007324,116.460182 149.185120,120.056969 150.572479,124.144409 
	C149.190903,126.417313 147.599792,128.199554 146.008667,129.981812 
	C143.803833,128.253128 141.513336,126.621582 139.415726,124.771339 
	C136.752747,122.422417 133.438507,120.644890 133.391586,116.161354 
	C133.377975,114.861023 131.029068,113.585144 129.457336,112.167892 
	C129.185684,111.031891 129.207413,110.026039 129.681885,109.329987 
	C130.669754,109.667900 131.204849,109.696022 131.739960,109.724144 
	C131.413284,109.281845 131.086624,108.839554 130.759949,108.397255 
	C130.635498,108.004379 130.511032,107.611504 130.386581,107.218628 
	C131.341492,107.403236 132.296387,107.587852 133.567566,107.857567 
z"/>
<path fill="#2B72DC" opacity="1.000000" stroke="none" 
	d="
M155.933105,389.859192 
	C155.804214,391.734985 155.675323,393.610748 155.251587,395.750671 
	C151.647568,388.027618 148.520370,379.957550 144.937546,372.095062 
	C143.548691,369.047241 141.129074,366.469147 139.036377,363.365601 
	C138.587173,361.525940 138.572495,359.856232 137.914505,358.498291 
	C136.452240,355.480530 134.667725,352.618896 133.016937,349.318237 
	C136.210831,350.144165 139.402374,351.345490 142.966522,353.176453 
	C144.375549,358.848022 144.828522,364.104492 146.585098,368.881622 
	C149.221161,376.050629 152.771530,382.883423 155.933105,389.859192 
z"/>
<path fill="#2A70D8" opacity="1.000000" stroke="none" 
	d="
M321.927612,396.954956 
	C322.327942,398.382385 322.728271,399.809784 323.408081,401.621246 
	C323.277832,403.285522 322.868073,404.565765 322.458313,405.846008 
	C321.763306,405.821716 321.068329,405.797424 320.373352,405.773132 
	C317.915741,394.507172 315.458160,383.241241 312.903870,371.324219 
	C312.659760,370.379608 312.436829,370.164185 312.138367,370.026855 
	C312.081543,369.589630 312.024689,369.152374 312.155853,368.227448 
	C311.950043,367.163574 311.556274,366.587402 311.162476,366.011230 
	C311.096832,365.272461 311.031189,364.533691 310.930054,363.424622 
	C311.262665,360.178802 311.717041,357.310852 311.968018,354.425171 
	C312.131378,352.547211 311.998779,350.643524 311.998779,348.751343 
	C312.501465,348.731812 313.004181,348.712311 313.506866,348.692780 
	C313.906921,354.570892 314.307007,360.449005 314.854980,367.137329 
	C315.340820,370.035461 315.530853,372.160400 316.043182,374.204590 
	C317.947235,381.802429 319.957336,389.373718 321.927612,396.954956 
z"/>
<path fill="#463D90" opacity="1.000000" stroke="none" 
	d="
M278.873047,353.097687 
	C278.171600,355.188538 277.470184,357.279388 276.893951,359.728333 
	C274.875671,362.818146 272.732178,365.549835 269.791138,369.297974 
	C268.761383,366.528778 268.155182,364.898529 267.221588,363.082733 
	C268.001801,359.460480 268.770416,355.857330 270.345154,352.649994 
	C271.278320,350.749390 273.483795,349.473450 275.371643,348.317322 
	C274.164398,352.063965 274.273804,354.245148 278.873047,353.097687 
z"/>
<path fill="#D8EBFE" opacity="1.000000" stroke="none" 
	d="
M97.634048,238.941528 
	C99.642487,239.870956 101.289345,240.904846 102.936203,241.938736 
	C102.782654,242.197342 102.629105,242.455963 102.475548,242.714584 
	C99.622520,242.421768 96.769485,242.128937 93.496140,241.788605 
	C93.047958,241.372269 93.020096,241.003448 92.961380,240.358368 
	C94.377846,239.736740 95.825165,239.391373 97.634048,238.941528 
z"/>
<path fill="#2B72DC" opacity="1.000000" stroke="none" 
	d="
M155.192200,398.296143 
	C155.839966,397.967499 156.483627,397.968903 157.449188,397.966858 
	C157.581131,398.846252 157.391174,399.729126 157.040634,401.358398 
	C156.137222,400.026031 155.662674,399.326141 155.192200,398.296143 
z"/>
<path fill="#2F77E3" opacity="1.000000" stroke="none" 
	d="
M311.102753,366.313019 
	C311.556274,366.587402 311.950043,367.163574 312.113617,367.898560 
	C311.603271,367.576538 311.323120,367.095673 311.102753,366.313019 
z"/>
<path fill="#2F77E3" opacity="1.000000" stroke="none" 
	d="
M312.123230,370.291138 
	C312.436829,370.164185 312.659760,370.379608 312.887573,370.895294 
	C312.681305,370.930084 312.394684,370.742737 312.123230,370.291138 
z"/>
<path fill="#3488FF" opacity="1.000000" stroke="none" 
	d="
M143.687531,303.609589 
	C143.826279,296.912537 147.083801,291.872162 152.364197,288.148743 
	C153.624725,287.259888 156.252014,286.647430 157.153854,287.338745 
	C158.243912,288.174316 158.762482,290.632843 158.494659,292.213867 
	C157.185425,299.943024 153.018555,305.651794 145.044525,308.982452 
	C143.608887,309.706696 142.791656,310.245209 141.663834,310.981323 
	C138.782867,312.150604 136.220139,313.143219 133.639542,314.086975 
	C131.772659,314.769745 129.882080,315.387787 128.002075,316.034668 
	C125.976250,314.969788 123.869041,314.032532 121.946144,312.806274 
	C119.761307,311.412933 116.994659,310.146271 119.139130,306.271454 
	C119.756950,305.607391 119.960785,305.307709 120.580322,305.004822 
	C127.428711,303.543274 133.834702,302.502441 140.125504,306.429321 
	C141.493637,306.768982 142.672806,306.893219 144.051620,307.038483 
	C143.919983,305.798676 143.803757,304.704132 143.687531,303.609589 
z"/>
<path fill="#3487FE" opacity="1.000000" stroke="none" 
	d="
M148.929260,325.030792 
	C148.978439,325.188660 149.017471,325.350677 149.079605,325.503265 
	C149.141693,325.655762 149.226883,325.798828 149.301956,325.946045 
	C149.857956,324.871399 150.520432,323.837677 150.951981,322.715179 
	C153.084488,317.168335 157.000519,313.287323 162.319077,310.902069 
	C163.645187,310.307373 166.160507,310.044830 166.799561,310.782135 
	C167.754028,311.883301 168.251663,314.334747 167.662827,315.629089 
	C166.249756,318.735199 164.091019,321.502045 162.116272,324.697174 
	C161.999359,324.988586 162.056961,324.991669 161.792969,325.025665 
	C161.327835,325.338745 161.126678,325.617828 160.540070,325.986206 
	C156.334656,327.326477 152.514709,328.577484 148.323364,329.854553 
	C146.700623,329.909424 145.449265,329.938232 144.011230,329.631958 
	C142.180756,328.930725 140.421692,328.012360 138.919739,328.325836 
	C136.573196,328.815613 134.400787,330.139618 132.154587,331.110168 
	C131.859314,330.964020 131.514206,330.873993 131.276520,330.662964 
	C129.034836,328.672760 126.811470,326.661896 124.582809,324.656982 
	C126.659134,323.052734 128.735443,321.448517 131.249481,319.570374 
	C136.784653,321.219421 141.882080,323.142395 146.988922,325.038818 
	C146.998337,325.012268 146.942276,325.018463 146.807312,325.289032 
	C146.969131,325.821930 147.265900,326.084229 147.562653,326.346558 
	C147.677551,325.902161 147.792450,325.457794 148.162994,325.008362 
	C148.588852,325.012512 148.759064,325.021667 148.929260,325.030792 
z"/>
<path fill="#DCEEFE" opacity="1.000000" stroke="none" 
	d="
M146.979492,325.065369 
	C141.882080,323.142395 136.784653,321.219421 131.324921,319.238617 
	C130.018463,318.339600 129.074295,317.498413 128.066101,316.345947 
	C129.882080,315.387787 131.772659,314.769745 133.639542,314.086975 
	C136.220139,313.143219 138.782867,312.150604 142.005341,311.140625 
	C144.098145,315.756714 145.538818,320.411041 146.979492,325.065369 
z"/>
<path fill="#42388D" opacity="1.000000" stroke="none" 
	d="
M131.922180,331.364075 
	C134.400787,330.139618 136.573196,328.815613 138.919739,328.325836 
	C140.421692,328.012360 142.180756,328.930725 143.676193,329.753845 
	C139.707870,331.307678 139.245743,333.213165 141.982666,336.234131 
	C140.552094,337.036682 139.289490,337.534668 137.692520,338.026825 
	C136.557892,338.304840 135.757645,338.588684 134.957413,338.872528 
	C133.911575,338.925873 132.865753,338.979218 131.432526,339.094482 
	C129.362625,338.526062 127.680115,337.895691 125.997612,337.265320 
	C127.198524,335.829163 128.346588,334.343475 129.625076,332.980072 
	C130.173645,332.395081 130.993286,332.064270 131.922180,331.364075 
z"/>
<path fill="#000000" opacity="1.000000" stroke="none" 
	d="
M120.164627,305.007996 
	C119.960785,305.307709 119.756950,305.607391 119.278877,305.948547 
	C116.422302,302.980011 113.839973,299.970032 111.635124,296.707886 
	C112.770912,296.647217 113.529228,296.838745 114.818878,297.428040 
	C116.955017,300.219879 118.559822,302.613922 120.164627,305.007996 
z"/>
<path fill="#FFFFFF" opacity="1.000000" stroke="none" 
	d="
M145.855316,130.331818 
	C147.599792,128.199554 149.190903,126.417313 150.891556,124.323769 
	C158.272537,121.623238 164.496399,123.024551 169.548874,128.998856 
	C170.702698,130.363159 172.144211,131.484146 173.964401,133.123077 
	C180.979630,140.358414 187.483765,147.187805 194.030914,154.363831 
	C195.179260,155.872803 196.152863,157.207214 197.410950,158.169876 
	C206.464874,165.097672 217.743607,165.505630 228.157471,168.423615 
	C229.134476,168.697357 230.464111,167.553238 231.668915,167.200256 
	C237.648422,165.448410 243.640976,163.741135 249.712097,162.448364 
	C249.823593,163.543274 249.864304,164.207718 249.878387,164.872711 
	C250.006302,170.912231 250.920151,171.931442 256.202057,171.912354 
	C261.458069,171.893356 262.734680,170.572586 262.918274,164.980957 
	C262.950989,163.984573 263.015045,162.989197 263.064636,161.993362 
	C266.320984,162.381378 268.217407,160.891663 270.538269,158.439133 
	C283.103790,145.160919 281.630219,129.063065 280.459534,112.953300 
	C280.113037,108.185066 278.907257,103.404793 279.152527,98.684982 
	C279.550323,91.030815 284.349640,86.461975 291.823303,84.048798 
	C294.449097,83.932579 296.737305,83.972183 299.442749,83.917114 
	C300.030334,84.107697 300.129944,84.517410 300.381226,84.660141 
	C308.590668,89.323639 310.154755,96.887955 308.925903,105.297462 
	C306.989319,118.550240 304.671173,131.747345 302.505554,144.966522 
	C300.608459,156.546478 294.317627,165.496567 285.563690,172.891464 
	C282.823059,175.206604 281.968536,177.236038 283.720886,180.899719 
	C289.426239,192.828293 286.115936,204.945221 283.458313,216.904633 
	C282.384247,221.738083 280.572937,226.407700 278.772034,231.721390 
	C275.612366,234.846176 272.777740,237.401443 269.544067,239.991516 
	C256.042969,244.060516 241.184647,240.611359 234.013107,231.870926 
	C230.859009,221.295715 227.613617,210.746338 224.609253,200.128754 
	C223.763565,197.140076 223.674988,193.942841 223.151993,190.856033 
	C221.933624,183.664841 221.839493,184.125305 214.063919,182.888565 
	C205.459442,181.519989 196.539597,180.311081 188.621597,176.978546 
	C181.170380,173.842468 174.583771,168.366058 168.097061,163.303848 
	C161.453949,158.119583 155.515503,152.042801 149.041122,146.628738 
	C143.587387,142.068176 142.687103,136.861694 145.855316,130.331818 
z"/>
<path fill="#BE1FC8" opacity="1.000000" stroke="none" 
	d="
M233.678970,231.987167 
	C241.184647,240.611359 256.042969,244.060516 269.567871,240.402039 
	C270.660065,246.688721 272.042236,252.626404 271.822205,258.504120 
	C271.532806,266.234772 269.982941,273.918243 268.975067,281.622009 
	C268.234406,283.038300 267.315430,284.390564 266.780487,285.880737 
	C261.104187,301.693085 253.242371,316.040741 241.032242,327.970123 
	C232.312210,336.489685 221.857193,339.524323 210.283783,339.875916 
	C200.485443,340.173584 190.672195,339.979736 180.390472,340.045654 
	C172.983932,339.461670 166.056458,338.785522 159.119080,338.233917 
	C156.342865,338.013214 153.544846,338.067078 150.116821,337.966248 
	C149.273209,337.633728 149.069489,337.330933 148.899414,336.581665 
	C148.853592,334.032959 148.774170,331.930725 148.694748,329.828491 
	C152.514709,328.577484 156.334656,327.326477 160.846207,325.976501 
	C161.710861,325.582275 161.883911,325.286957 162.056961,324.991669 
	C162.056961,324.991669 161.999359,324.988586 161.998154,325.017090 
	C164.329727,324.753967 166.662521,324.462341 169.783905,324.071289 
	C179.585754,321.744141 188.514236,319.046387 197.632675,317.402222 
	C210.367004,315.106110 216.027756,307.301880 216.649094,295.096008 
	C216.927094,289.634430 216.995422,284.119507 216.566467,278.675476 
	C216.033707,271.913757 214.887436,265.200348 214.006149,258.466095 
	C215.435837,254.094101 216.405670,249.498032 218.401688,245.402008 
	C221.492188,239.060013 227.084946,235.106400 233.678970,231.987167 
z"/>
<path fill="#3285FE" opacity="1.000000" stroke="none" 
	d="
M213.658447,258.604126 
	C214.887436,265.200348 216.033707,271.913757 216.566467,278.675476 
	C216.995422,284.119507 216.927094,289.634430 216.649094,295.096008 
	C216.027756,307.301880 210.367004,315.106110 197.632675,317.402222 
	C188.514236,319.046387 179.585754,321.744141 170.147888,323.945007 
	C176.960953,299.944641 188.953781,278.909454 207.970947,262.255157 
	C209.558701,260.864685 211.521973,259.903015 213.658447,258.604126 
z"/>
<path fill="#66A6FF" opacity="1.000000" stroke="none" 
	d="
M143.360657,303.686707 
	C143.803757,304.704132 143.919983,305.798676 144.051620,307.038483 
	C142.672806,306.893219 141.493637,306.768982 140.424484,306.233429 
	C139.021957,301.222321 137.509430,296.622559 135.996902,292.022766 
	C136.034195,291.715027 136.167145,291.456512 136.569748,291.109955 
	C138.840408,295.236420 140.937088,299.500122 143.360657,303.686707 
z"/>
<path fill="#66A6FF" opacity="1.000000" stroke="none" 
	d="
M146.988922,325.038818 
	C145.538818,320.411041 144.098145,315.756714 142.315948,310.943054 
	C142.791656,310.245209 143.608887,309.706696 144.714050,309.084473 
	C146.325409,314.084045 147.648788,319.167358 148.950714,324.640717 
	C148.759064,325.021667 148.588852,325.012512 147.921631,324.989685 
	C147.424652,324.976013 146.942276,325.018463 146.942276,325.018463 
	C146.942276,325.018463 146.998337,325.012268 146.988922,325.038818 
z"/>
<path fill="#DCEEFE" opacity="1.000000" stroke="none" 
	d="
M126.001465,271.475037 
	C126.009232,271.829590 125.557098,271.967102 125.323738,272.004089 
	C124.460869,270.536804 123.831360,269.032471 123.100922,267.264099 
	C123.000000,267.000000 123.003052,266.996338 123.003052,266.996338 
	C123.999939,268.371033 124.996819,269.745758 126.001465,271.475037 
z"/>
<path fill="#DCEEFE" opacity="1.000000" stroke="none" 
	d="
M122.998474,267.001465 
	C122.113258,266.358459 121.229576,265.714050 120.345894,265.069611 
	C120.725357,264.710876 121.104820,264.352173 121.484283,263.993439 
	C121.986771,264.766113 122.489258,265.538818 122.997398,266.653931 
	C123.003052,266.996338 123.000000,267.000000 122.998474,267.001465 
z"/>
<path fill="#D8EBFE" opacity="1.000000" stroke="none" 
	d="
M115.637436,256.024353 
	C116.084991,258.306183 115.313263,259.117981 112.969635,257.384827 
	C113.594131,256.786652 114.443390,256.421021 115.637436,256.024353 
z"/>
<path fill="#D8EBFE" opacity="1.000000" stroke="none" 
	d="
M112.997787,253.249420 
	C113.636520,253.243759 114.090630,253.355743 114.504066,253.552979 
	C114.552025,253.575851 114.374489,254.071411 114.301483,254.347824 
	C113.801331,254.029373 113.301178,253.710922 112.997787,253.249420 
z"/>
<path fill="#DCEEFE" opacity="1.000000" stroke="none" 
	d="
M133.247223,285.639221 
	C133.008194,285.624695 132.877609,285.494263 132.747040,285.363861 
	C132.949921,285.417023 133.152786,285.470184 133.247223,285.639221 
z"/>
<path fill="#DCEEFE" opacity="1.000000" stroke="none" 
	d="
M131.754288,283.359131 
	C131.993347,283.373718 132.123886,283.504181 132.254425,283.634613 
	C132.051544,283.581390 131.848648,283.528168 131.754288,283.359131 
z"/>
<path fill="#DCEEFE" opacity="1.000000" stroke="none" 
	d="
M130.756683,281.359741 
	C130.993637,281.374298 131.122955,281.503723 131.252274,281.633118 
	C131.051208,281.580261 130.850143,281.527405 130.756683,281.359741 
z"/>
<path fill="#DCEEFE" opacity="1.000000" stroke="none" 
	d="
M130.245422,279.637695 
	C130.008484,279.623230 129.879089,279.493835 129.749695,279.364441 
	C129.950790,279.417206 130.151886,279.469971 130.245422,279.637695 
z"/>
<path fill="#DCEEFE" opacity="1.000000" stroke="none" 
	d="
M135.496414,286.970215 
	C135.479980,287.089447 135.330048,287.203705 135.137909,287.141541 
	C135.095734,286.965088 135.362915,286.965179 135.496414,286.970215 
z"/>
<path fill="#9B15AB" opacity="1.000000" stroke="none" 
	d="
M269.383972,281.770081 
	C269.982941,273.918243 271.532806,266.234772 271.822205,258.504120 
	C272.042236,252.626404 270.660065,246.688721 269.966949,240.367218 
	C272.777740,237.401443 275.612366,234.846176 278.717407,232.085480 
	C291.293640,237.401184 303.599457,242.922318 316.223755,248.603729 
	C322.483948,253.743942 328.880951,258.282959 334.245575,263.821808 
	C340.185394,269.954498 341.690765,277.723938 336.973297,285.279053 
	C330.759430,295.230774 323.869995,304.760651 316.906708,314.939117 
	C316.320557,315.922760 316.098694,316.439178 315.876831,316.955627 
	C315.876862,316.955627 315.964203,316.956390 315.652405,317.048889 
	C314.560974,318.092346 313.781372,319.043335 313.001770,319.994324 
	C310.717896,322.543457 308.434021,325.092590 306.001282,327.964417 
	C300.113037,334.186127 294.429108,340.140961 288.591614,345.941284 
	C287.285828,347.238708 285.441589,347.994202 283.316711,348.673553 
	C281.383575,347.138794 279.978973,345.929688 278.574402,344.720581 
	C279.047363,343.075317 279.229889,341.269104 280.038513,339.809814 
	C287.747345,325.897552 295.700653,312.118774 303.255554,298.124542 
	C305.306610,294.325317 306.246887,289.926422 307.889801,285.254395 
	C294.435211,284.076141 282.114075,282.997131 269.383972,281.770081 
z"/>
<path fill="#000000" opacity="1.000000" stroke="none" 
	d="
M320.739197,342.077209 
	C321.868591,349.016357 324.866180,354.333588 332.075745,356.384949 
	C331.040833,359.337646 330.106049,362.004700 328.956146,365.285553 
	C326.367065,359.979187 322.986389,356.445404 317.430176,354.976929 
	C318.049347,350.920410 319.036163,346.890289 320.055206,342.456757 
	C320.087433,342.053375 320.526093,342.023376 320.739197,342.077209 
z"/>
<path fill="#000000" opacity="1.000000" stroke="none" 
	d="
M330.630157,335.914307 
	C333.132294,338.182922 335.278687,340.528442 337.798950,343.282501 
	C336.628815,345.647705 335.154327,348.628235 333.606201,351.757538 
	C331.800568,346.612427 329.796692,341.953156 323.413086,340.946503 
	C325.448822,339.266357 327.861603,337.628754 330.630157,335.914307 
z"/>
<path fill="#000000" opacity="1.000000" stroke="none" 
	d="
M344.492737,331.066650 
	C343.060669,333.349030 341.814056,335.373230 340.555389,337.416962 
	C339.764679,335.192505 338.961884,332.934113 337.998047,330.330444 
	C338.360168,329.349792 338.883362,328.714386 339.695740,327.957977 
	C341.549316,328.827484 343.113770,329.817993 344.492737,331.066650 
z"/>
<path fill="#42388D" opacity="1.000000" stroke="none" 
	d="
M193.987900,154.017181 
	C187.483765,147.187805 180.979630,140.358414 174.270309,133.261734 
	C172.560944,123.331963 171.472504,113.581184 169.444122,104.030022 
	C167.072449,92.862389 175.793900,82.495781 187.792542,82.872940 
	C197.080750,83.164894 206.375183,83.258888 215.666656,83.449905 
	C216.497421,83.466988 217.333511,83.500427 218.155823,83.610710 
	C229.712463,85.160606 237.793137,91.196419 242.079941,102.145790 
	C243.604019,106.038620 247.611740,108.337006 251.335327,107.524124 
	C258.648560,105.927605 264.370514,108.107399 267.209656,113.571487 
	C270.159576,119.248787 268.819519,124.636375 262.550262,130.327454 
	C252.736572,132.523682 249.042725,141.370667 241.912216,145.287857 
	C245.092072,148.295197 247.577194,150.645493 249.984558,153.323532 
	C249.874527,154.323456 249.842255,154.995636 249.471283,155.797852 
	C242.858749,159.312607 236.143295,162.165421 229.188370,159.373306 
	C217.780212,154.793411 205.914383,154.496643 193.987900,154.017181 
z"/>
<path fill="#FEB299" opacity="1.000000" stroke="none" 
	d="
M250.062332,152.995773 
	C247.577194,150.645493 245.092072,148.295197 241.912216,145.287857 
	C249.042725,141.370667 252.736572,132.523682 262.334625,130.572311 
	C266.837341,136.930969 267.746613,144.049164 266.580841,151.441879 
	C266.329285,153.036957 264.843140,154.437363 263.104553,155.973694 
	C258.209747,155.011887 254.136032,154.003830 250.062332,152.995773 
z"/>
<path fill="#FEA689" opacity="1.000000" stroke="none" 
	d="
M249.984558,153.323532 
	C254.136032,154.003830 258.209747,155.011887 262.747803,156.039078 
	C263.131348,157.754761 263.050507,159.451324 263.017151,161.570618 
	C263.015045,162.989197 262.950989,163.984573 262.918274,164.980957 
	C262.734680,170.572586 261.458069,171.893356 256.202057,171.912354 
	C250.920151,171.931442 250.006302,170.912231 249.878387,164.872711 
	C249.864304,164.207718 249.823593,163.543274 249.806122,162.004395 
	C249.814651,159.309387 249.812302,157.488602 249.809967,155.667801 
	C249.842255,154.995636 249.874527,154.323456 249.984558,153.323532 
z"/>
<path fill="#F6A99D" opacity="1.000000" stroke="none" 
	d="
M278.328247,344.983490 
	C279.978973,345.929688 281.383575,347.138794 282.955811,348.623169 
	C281.889130,350.171448 280.654816,351.444427 279.146759,352.907532 
	C274.273804,354.245148 274.164398,352.063965 275.748108,348.380371 
	C276.607452,347.110596 277.344788,346.178497 278.328247,344.983490 
z"/>
<path fill="#000000" opacity="1.000000" stroke="none" 
	d="
M321.964050,396.542969 
	C319.957336,389.373718 317.947235,381.802429 316.043182,374.204590 
	C315.530853,372.160400 315.340820,370.035461 315.020569,367.528748 
	C315.361237,365.361572 315.684174,363.613251 316.035706,361.457123 
	C319.306580,364.428436 322.548828,367.807495 326.694855,372.128448 
	C325.355286,378.977783 323.677917,387.554382 321.964050,396.542969 
z"/>
<path fill="#2A70D8" opacity="1.000000" stroke="none" 
	d="
M313.278015,320.272400 
	C313.781372,319.043335 314.560974,318.092346 315.624390,317.015381 
	C315.106506,326.344788 314.304840,335.800171 313.503204,345.255585 
	C313.145782,345.265900 312.788330,345.276184 312.430878,345.286499 
	C312.430878,340.926300 312.285553,336.559784 312.474152,332.207733 
	C312.642883,328.313690 313.179810,324.435638 313.278015,320.272400 
z"/>
<path fill="#2A70D8" opacity="1.000000" stroke="none" 
	d="
M316.135681,316.820068 
	C316.098694,316.439178 316.320557,315.922760 316.786499,315.256927 
	C316.818542,315.633179 316.606537,316.158844 316.135681,316.820068 
z"/>
<path fill="#000000" opacity="1.000000" stroke="none" 
	d="
M349.266876,351.024231 
	C344.767822,351.158478 340.560730,351.158478 336.113342,351.158478 
	C337.054932,349.111206 338.168427,346.690094 338.814026,345.286316 
	C343.578461,345.904846 347.874847,346.462616 352.543793,347.091309 
	C351.797150,348.404785 350.678009,349.647369 349.266876,351.024231 
z"/>
<path fill="#000000" opacity="1.000000" stroke="none" 
	d="
M325.432373,391.785645 
	C326.344666,384.957214 327.590088,377.996826 328.847046,370.972015 
	C330.680450,371.416382 331.910583,371.714539 333.530945,372.060760 
	C331.202576,378.623779 328.484070,385.138763 325.432373,391.785645 
z"/>
<path fill="#000000" opacity="1.000000" stroke="none" 
	d="
M340.034058,363.665192 
	C337.106750,364.466156 334.303040,364.959869 330.874939,365.563507 
	C331.666351,363.177643 332.486145,360.706360 333.387909,357.987885 
	C336.328705,358.335602 339.193817,358.674377 342.487427,359.059143 
	C341.996490,360.522766 341.077057,361.940338 340.034058,363.665192 
z"/>
<path fill="#000000" opacity="1.000000" stroke="none" 
	d="
M155.960007,389.403259 
	C152.771530,382.883423 149.221161,376.050629 146.585098,368.881622 
	C144.828522,364.104492 144.375549,358.848022 143.190002,353.459442 
	C146.255569,352.625824 149.470230,352.138855 153.370346,351.548065 
	C154.231613,363.858612 155.109253,376.402985 155.960007,389.403259 
z"/>
<path fill="#000000" opacity="1.000000" stroke="none" 
	d="
M148.865784,337.028076 
	C149.069489,337.330933 149.273209,337.633728 149.740219,338.031769 
	C150.335526,339.808197 150.667526,341.489380 150.842209,343.740936 
	C150.570160,344.448761 150.455444,344.586212 150.340729,344.723663 
	C146.862411,343.145050 143.384094,341.566406 139.404663,339.702881 
	C138.611328,338.956207 138.319122,338.494415 138.026901,338.032654 
	C139.289490,337.534668 140.552094,337.036682 142.367172,336.245819 
	C144.901703,336.311340 146.883743,336.669708 148.865784,337.028076 
z"/>
<path fill="#2D76E2" opacity="1.000000" stroke="none" 
	d="
M137.692520,338.026825 
	C138.319122,338.494415 138.611328,338.956207 139.014648,339.678894 
	C137.895126,339.779633 136.664474,339.619415 135.195618,339.165863 
	C135.757645,338.588684 136.557892,338.304840 137.692520,338.026825 
z"/>
<path fill="#000000" opacity="1.000000" stroke="none" 
	d="
M150.877991,344.124634 
	C151.290848,344.503418 151.510590,345.068909 151.730347,345.634369 
	C151.390244,345.478455 151.050140,345.322571 150.525391,344.945160 
	C150.455444,344.586212 150.570160,344.448761 150.877991,344.124634 
z"/>
<path fill="#DCEEFE" opacity="1.000000" stroke="none" 
	d="
M124.989059,273.007263 
	C125.209541,273.210541 125.405128,273.430817 125.600708,273.651093 
	C125.369446,273.625031 125.138191,273.598938 124.920059,273.324463 
	C124.933197,273.076050 124.964172,273.024292 124.989059,273.007263 
z"/>
<path fill="#DCEEFE" opacity="1.000000" stroke="none" 
	d="
M135.638000,291.926666 
	C137.509430,296.622559 139.021957,301.222321 140.235504,306.018005 
	C133.834702,302.502441 127.428711,303.543274 120.580322,305.004822 
	C118.559822,302.613922 116.955017,300.219879 115.210037,297.535736 
	C122.526970,298.130280 129.279999,296.387268 135.638000,291.926666 
z"/>
<path fill="#000000" opacity="1.000000" stroke="none" 
	d="
M130.544220,108.560623 
	C131.086624,108.839554 131.413284,109.281845 131.739960,109.724144 
	C131.204849,109.696022 130.669754,109.667900 130.030121,109.362564 
	C130.059906,108.964905 130.194214,108.844452 130.544220,108.560623 
z"/>
<path fill="#F6A99D" opacity="1.000000" stroke="none" 
	d="
M148.899414,336.581635 
	C146.883743,336.669708 144.901703,336.311340 142.535126,335.941223 
	C139.245743,333.213165 139.707870,331.307678 143.862885,330.088928 
	C145.449265,329.938232 146.700623,329.909424 148.323364,329.854553 
	C148.774170,331.930725 148.853592,334.032959 148.899414,336.581635 
z"/>
<path fill="#DCEEFE" opacity="1.000000" stroke="none" 
	d="
M146.807312,325.289032 
	C146.942276,325.018463 147.424652,324.976013 147.666000,324.994690 
	C147.792450,325.457794 147.677551,325.902161 147.562653,326.346558 
	C147.265900,326.084229 146.969131,325.821930 146.807312,325.289032 
z"/>
<path fill="#E4F3FE" opacity="1.000000" stroke="none" 
	d="
M161.792969,325.025665 
	C161.883911,325.286957 161.710861,325.582275 161.231674,325.887238 
	C161.126678,325.617828 161.327835,325.338745 161.792969,325.025665 
z"/>
<path fill="#E3F0FC" opacity="1.000000" stroke="none" 
	d="
M249.471268,155.797852 
	C249.812302,157.488602 249.814651,159.309387 249.722961,161.574173 
	C243.640976,163.741135 237.648422,165.448410 231.668915,167.200256 
	C230.464111,167.553238 229.134476,168.697357 228.157471,168.423615 
	C217.743607,165.505630 206.464874,165.097672 197.410950,158.169876 
	C196.152863,157.207214 195.179260,155.872803 194.030914,154.363831 
	C205.914383,154.496643 217.780212,154.793411 229.188370,159.373306 
	C236.143295,162.165421 242.858749,159.312607 249.471268,155.797852 
z"/>
</svg>